<?xml version="1.0" encoding="utf-8"?>
<!-- Generator: Adobe Illustrator 18.1.1, SVG Export Plug-In . SVG Version: 6.00 Build 0)  -->
<!DOCTYPE svg PUBLIC "-//W3C//DTD SVG 1.1//EN" "http://www.w3.org/Graphics/SVG/1.1/DTD/svg11.dtd">
<svg version="1.1" id="Ebene_1" xmlns="http://www.w3.org/2000/svg" xmlns:xlink="http://www.w3.org/1999/xlink" x="0px" y="0px"
	 viewBox="0 0 101.3 101.2" enable-background="new 0 0 101.3 101.2" xml:space="preserve">
<g>
	<g>
		<path fill="#1077BD" d="M-153.7-440.8h-25.8v25.8h25.8V-440.8z M-157-427.9v9.7h-9.7h-9.7v-9.7v-9.7h9.7h9.7V-427.9z"/>
		<path fill="#1077BD" d="M-166.6-437.6c-5.4,0-9.7,4.3-9.7,9.7s4.3,9.7,9.7,9.7c5.4,0,9.7-4.3,9.7-9.7S-161.3-437.6-166.6-437.6z
			 M-166.6-419.3c-4.8,0-8.6-3.9-8.6-8.6s3.9-8.6,8.6-8.6c4.8,0,8.6,3.9,8.6,8.6S-161.9-419.3-166.6-419.3z"/>
		<circle fill="#1077BD" cx="-169.9" cy="-427.9" r="2.2"/>
		<circle fill="#1077BD" cx="-163.4" cy="-427.9" r="2.2"/>
	</g>
	<g>
		<path fill="#1077BD" d="M-209.4-428.8l10.6-5.5l-1.2-2.9l-10.9,5.8l-6.3-10.7l-6.3,10.7l-10.9-5.8l-1.2,2.9l10.6,5.5l-4.2,7.2
			l-7.6,4l1.2,2.6l3.6-1.9l-1.1,1.9h32l-1.1-1.9l3.6,1.9l1.2-2.6l-7.6-4L-209.4-428.8z M-210.8-424.6l-3.3-1.7l1.8-0.9L-210.8-424.6
			z M-217.3-435.9l3.5,6.1l-3.5,1.8l-3.5-1.8L-217.3-435.9z M-222.3-427.2l1.8,0.9l-3.3,1.7L-222.3-427.2z M-207.4-418.7h-19.7
			l0.7-1.2l9.2-4.8l9.2,4.8L-207.4-418.7z"/>
	</g>
	<g>
		<path fill="#1077BD" d="M-106.3-415l-4.9-18.5c0,0,0-2.5-3.7-2.5c-3.7,0-19.7,0-19.7,0l1.2,2.5c0,0,14.8,1.2,17.2,1.2
			s2.5,2.5,2.5,2.5l0.4,2.5c-3.5,0-9.2,0-13.9,0c-9.8,0-11.1,12.3-11.1,12.3h27.1H-106.3z M-135.3-417.5c0.9-3,3-7.4,8.1-7.4h14.4
			l1.2,7.4H-135.3z"/>
		<circle fill="#1077BD" cx="-122.3" cy="-421.2" r="2.5"/>
	</g>
	<g>
		<path fill="#1077BD" d="M-278.8-431c0,2,1.4,2.8,2.5,2.3v5.1c0,2.4,2,3.1,3.1,1.9c0.7,0.8,1.8,0.8,2.5,0c0.3,0.4,0.8,0.6,1.2,0.6
			c0.9,0,1.8-0.8,1.8-2.5v-3.8c0.7,0.3,1.5,0.1,2-0.6c0.3-0.4,0.5-1,0.5-1.8v-4.9c0-3.8-0.6-6.2-1-7.4h-1.3c0.3,0.8,1,3.2,1,7.4v4.9
			c0,0.4-0.1,0.8-0.3,1c-0.4,0.5-1,0.1-1-1v-3.1h-1.2v9.2c0,1.6-1.2,1.6-1.2,0v-8h-1.2v8c0,1.6-1.2,1.6-1.2,0v-8h-1.2v8
			c0,1.6-1.2,1.6-1.2,0v-11.1h-1.2v3.7c0,1.6-1.2,1.6-1.2,0v-4.9c0-2.2,3.1-5.1,4.5-6.2h-1.9c-1.5,1.4-3.8,3.9-3.8,6.2V-431z"/>
		<path fill="#1077BD" d="M-257.1-434.8c-0.7-0.1-1.1-0.5-1.5-1c-0.6-0.6-1.4-1.4-2.9-1.4c-1.2,0-1.9,0.5-2.5,1v1.7
			c0.2-0.1,0.3-0.3,0.4-0.4c0.6-0.6,1-1.1,2-1.1s1.4,0.5,2,1.1c0.5,0.5,1.1,1.1,2.2,1.3l-3,14.8h-22.1l-3-14.8
			c1-0.2,1.7-0.8,2.2-1.3c0.6-0.6,1-1,2-1c0.5,0,0.9,0.1,1.2,0.4v-1.4c-0.4-0.1-0.8-0.2-1.2-0.2c-1.5,0-2.3,0.8-2.9,1.4
			c-0.5,0.5-0.9,0.9-1.5,1l-0.5-2.4h-3.7l4.9,22.1h27.1l4.9-22.1h-3.7L-257.1-434.8z"/>
	</g>
	<g>
		<path fill="#1077BD" d="M-79-413.8c7.5,0,13.5-6.1,13.5-13.5s-6.1-13.5-13.5-13.5s-13.5,6.1-13.5,13.5S-86.5-413.8-79-413.8z
			 M-79-438.4c6.1,0,11.1,5,11.1,11.1c0,6.1-5,11.1-11.1,11.1s-11.1-5-11.1-11.1C-90.1-433.4-85.1-438.4-79-438.4z"/>
		<path fill="#1077BD" d="M-80.8-425.2h1.8c1.6,0,2.8-0.4,3.7-1.3c0.9-0.9,1.4-1.9,1.4-3.3c0-1.3-0.4-2.4-1.3-3.1
			c-0.9-0.7-2.1-1.1-3.7-1.1h-4.2v13.8h2.3V-425.2z M-80.8-432.1h1.7c1.9,0,2.8,0.8,2.8,2.4c0,0.8-0.3,1.5-0.8,1.9
			c-0.5,0.5-1.3,0.7-2.2,0.7h-1.5V-432.1z"/>
	</g>
</g>
<g>
	<path fill="#1077BD" d="M-232.2-345.3c0-0.6-0.5-1.1-1.1-1.1h-7.5l0.2-4.6c5.2-1.4,8.4-4.5,8.4-7.9c0-0.6-0.5-1.1-1.1-1.1h-38.2
		c-0.6,0-1.1,0.5-1.1,1.1c0,3.4,3.2,6.4,8.2,7.9l0.2,4.7h-7.2c-0.6,0-1.1,0.5-1.1,1.1c0,3.5,3.4,6.7,8.8,8l0.2,4.8h-7.1
		c-0.6,0-1.1,0.5-1.1,1.1c0,3.5,3.3,6.6,8.6,8l0.2,6.3c0,2.8,2.3,5.1,5.1,5.1h1.1v5.5c0,0.6,0.5,1.1,1.1,1.1c0.6,0,1.1-0.5,1.1-1.1
		v-5.5h4.7v5.5c0,0.6,0.5,1.1,1.1,1.1c0.6,0,1.1-0.5,1.1-1.1v-5.5h0.7c2.8,0,5.1-2.3,5.1-5l0.2-6.3c5.4-1.4,8.8-4.5,8.8-8.1
		c0-0.6-0.5-1.1-1.1-1.1h-7.3l0.2-4.7C-235.7-338.5-232.2-341.7-232.2-345.3z M-243.5-330.5c0.2,0.2,0.5,0.4,0.8,0.4h7.2
		c-0.8,2.1-3.7,4-7.7,4.9c-0.2,0-0.4,0.1-0.5,0.2c-0.3,0.2-0.4,0.5-0.4,0.9l-0.2,7.2c0,1.5-1.2,2.8-2.8,2.8h-11.1
		c-1.5,0-2.8-1.2-2.8-2.8l-0.2-7.1c0-0.3-0.3-0.8-0.6-1c-0.1-0.1-0.3-0.2-0.5-0.2c-3.8-0.9-6.5-2.7-7.3-4.8h6.9
		c0.3,0,0.6-0.1,0.8-0.4c0.2-0.2,0.3-0.5,0.3-0.8l-0.3-6.6c0-0.3-0.2-0.6-0.4-0.8l-0.4-0.3c-0.1-0.1-0.3-0.2-0.5-0.2
		c-3.8-0.9-6.5-2.7-7.3-4.8h7.1c0.3,0,0.6-0.1,0.8-0.4c0.2-0.2,0.3-0.5,0.3-0.8l-0.3-6.7c0-0.5-0.4-0.9-0.9-1.1
		c-3.7-0.9-6.3-2.7-7-4.7h35.5c-0.8,2.1-3.5,3.9-7.3,4.8c-0.5,0.1-0.9,0.6-0.9,1.1l-0.3,6.7c0,0.3,0.1,0.6,0.3,0.8
		c0.2,0.2,0.5,0.4,0.8,0.4h7.3c-0.8,2.1-3.7,4-7.7,4.9c-0.2,0-0.4,0.1-0.5,0.2l-0.2,0.2c-0.2,0.2-0.4,0.5-0.4,0.8l-0.3,6.7
		C-243.8-331.1-243.7-330.8-243.5-330.5z"/>
	<path fill="#1077BD" d="M-252.6-355.6c-3.2,0-5.8,2.5-5.8,5.7c0,3.1,2.6,5.7,5.8,5.7c3.2,0,5.8-2.5,5.8-5.7
		C-246.8-353-249.4-355.6-252.6-355.6z M-252.6-346.5c-1.9,0-3.5-1.5-3.5-3.4c0-1.9,1.6-3.4,3.5-3.4c2,0,3.5,1.5,3.5,3.4
		C-249.1-348-250.6-346.5-252.6-346.5z"/>
	<path fill="#1077BD" d="M-252.6-341.8c-3.2,0-5.8,2.5-5.8,5.7c0,3.1,2.6,5.7,5.8,5.7c3.2,0,5.8-2.5,5.8-5.7
		C-246.8-339.3-249.4-341.8-252.6-341.8z M-252.6-332.7c-1.9,0-3.5-1.5-3.5-3.4s1.6-3.4,3.5-3.4c2,0,3.5,1.5,3.5,3.4
		S-250.6-332.7-252.6-332.7z"/>
	<path fill="#1077BD" d="M-252.6-328c-3.2,0-5.8,2.5-5.8,5.7s2.6,5.7,5.8,5.7c3.2,0,5.8-2.5,5.8-5.7S-249.4-328-252.6-328z
		 M-252.6-319c-1.9,0-3.5-1.5-3.5-3.4s1.6-3.4,3.5-3.4c2,0,3.5,1.5,3.5,3.4S-250.6-319-252.6-319z"/>
</g>
<g>
	<path fill="#1077BD" d="M-106.2-350.1l2.7-2.9c0.5-0.6,0.5-1.5-0.1-2l-3.2-3c-0.6-0.5-1.5-0.5-2,0.1l-2.8,3c0,0,0.3,0,0.2,0.1
		c-3.4-2.4-7.4-4-11.4-4.8v-1.2c0-0.8-0.3-2.9-0.3-2.9c0-0.8-0.9-1.2-1.8-1.2h-7.4c-0.8,0-1.5,0.3-1.5,1.2c0,0,0,2.1,0,2.9v1.2
		c-4,0.7-7.8,2.3-11.1,4.5l-2.5-2.7c-0.5-0.6-1.4-0.6-2-0.1l-3.2,3c-0.6,0.5-0.6,1.5,0,2l2.3,2.4c-4.8,5.3-7.8,12.3-7.8,20
		c0,16.4,13.3,29.6,29.6,29.6s29.6-13.3,29.6-29.6C-98.8-338.1-101.6-344.9-106.2-350.1z M-128.4-304.2c-14.6,0-26.4-11.8-26.4-26.4
		S-143-357-128.4-357s26.4,11.8,26.4,26.4S-113.8-304.2-128.4-304.2z"/>
	<path fill="#1077BD" d="M-128.2-343.6c0.6,0,1.5-0.5,1.5-1.1v-5.9c0-0.6-0.9-1.1-1.5-1.1s-1.5,0.5-1.5,1.1v5.9
		C-129.7-344.1-128.8-343.6-128.2-343.6z"/>
	<path fill="#1077BD" d="M-137.5-348.5c-0.3-0.5-1-0.7-1.5-0.4c-0.5,0.3-0.7,1-0.4,1.5l3,5.1c0.2,0.4,0.6,0.6,1,0.6
		c0.2,0,0.4,0,0.6-0.1c0.5-0.3,0.7-1,0.4-1.5L-137.5-348.5z"/>
	<path fill="#1077BD" d="M-146.3-339.6l5.1,3c0.2,0.1,0.4,0.1,0.6,0.1c0.4,0,0.8-0.2,1-0.6c0.3-0.5,0.1-1.2-0.4-1.5l-5.1-3
		c-0.5-0.3-1.2-0.1-1.5,0.4C-147-340.6-146.8-339.9-146.3-339.6z"/>
	<path fill="#1077BD" d="M-141.4-330c0-0.6-0.5-1-1.1-1h-5.9c-0.6,0-1.1,0.4-1.1,1c0,0.6,0.5,1,1.1,1h5.9
		C-141.9-329-141.4-329.4-141.4-330z"/>
	<path fill="#1077BD" d="M-139.6-324.1c-0.3-0.5-1-0.7-1.5-0.4l-5.1,3c-0.5,0.3-0.7,1-0.4,1.5c0.2,0.4,0.6,0.6,1,0.6
		c0.2,0,0.4,0,0.6-0.1l5.1-3C-139.5-322.9-139.3-323.6-139.6-324.1z"/>
	<path fill="#1077BD" d="M-134.9-319.4c-0.5-0.3-1.2-0.1-1.5,0.4l-3,5.1c-0.3,0.5-0.1,1.2,0.4,1.5c0.2,0.1,0.4,0.1,0.6,0.1
		c0.4,0,0.8-0.2,1-0.6l3-5.1C-134.2-318.4-134.4-319.1-134.9-319.4z"/>
	<path fill="#1077BD" d="M-128.2-317.6c-0.6,0-1.5,0.5-1.5,1.1v5.9c0,0.6,0.9,1.1,1.5,1.1s1.5-0.5,1.5-1.1v-5.9
		C-126.7-317.1-127.6-317.6-128.2-317.6z"/>
	<path fill="#1077BD" d="M-120.4-319c-0.3-0.5-1-0.7-1.5-0.4c-0.5,0.3-0.7,1-0.4,1.5l3,5.1c0.2,0.4,0.6,0.6,1,0.6
		c0.2,0,0.4,0,0.6-0.1c0.5-0.3,0.7-1,0.4-1.5L-120.4-319z"/>
	<path fill="#1077BD" d="M-110.5-321.6l-5.1-3c-0.5-0.3-1.2-0.1-1.5,0.4c-0.3,0.5-0.1,1.2,0.4,1.5l5.1,3c0.2,0.1,0.4,0.1,0.6,0.1
		c0.4,0,0.8-0.2,1-0.6C-109.8-320.6-110-321.3-110.5-321.6z"/>
	<path fill="#1077BD" d="M-108.4-331h-5.9c-0.6,0-1.1,0.4-1.1,1c0,0.6,0.5,1,1.1,1h5.9c0.6,0,1.1-0.4,1.1-1
		C-107.3-330.6-107.8-331-108.4-331z"/>
	<path fill="#1077BD" d="M-121.9-341.8c0.2,0.1,0.4,0.1,0.6,0.1c0.4,0,0.8-0.2,1-0.6l3-5.1c0.3-0.5,0.1-1.2-0.4-1.5
		c-0.5-0.3-1.2-0.1-1.5,0.4l-3,5.1C-122.7-342.8-122.5-342.1-121.9-341.8z"/>
	<path fill="#1077BD" d="M-127.4-329.4l17.3-9.3c1.1-0.6,1.5-1.9,0.9-3c-0.6-1.1-1.9-1.5-3-0.9l-17.3,9.3c-1.1,0.6-1.5,1.9-0.9,3
		c0.4,0.7,1.2,1.2,2,1.2C-128.1-329.1-127.7-329.2-127.4-329.4z"/>
</g>
<g id="Your_Icon_1_">
	<path fill="#1077BD" d="M-259.3-242.6c0.8,0.3,1.5,0,1.6-0.7c0.1-0.7-0.4-1.7-1.2-2c-20.5-8.7-40.9,19-61.4-2
		c-0.8-0.8-1.5-1-1.6-0.3c-0.1,0.6,0.4,1.9,1.2,2.8C-300.2-223.2-279.7-250.8-259.3-242.6z"/>
	<path fill="#1077BD" d="M-298.4-245.4c8.3-1.1,16.5-5.3,24.8-6.9c0.8-0.2,1.5-0.9,1.6-1.7c0.1-0.8-0.4-1.4-1.2-1.3
		c-8.3,1.5-16.5,5.7-24.8,6.9c-0.8,0.1-1.5,0.8-1.6,1.7C-299.7-245.9-299.2-245.3-298.4-245.4z"/>
	<path fill="#1077BD" d="M-249.5-229.9c-20.5-21.8-40.9,5.9-61.4-2.3c-0.8-0.3-1.5,0-1.6,0.7c-0.1,0.7,0.4,1.7,1.2,2
		c20.5,8.7,40.9-19,61.4,2c0.8,0.8,1.5,1,1.6,0.3C-248.2-227.8-248.7-229-249.5-229.9z"/>
	<path fill="#1077BD" d="M-255.7-226.4c-20.5-12.7-40.9,15.4-61.4-0.8c-0.8-0.6-1.5-0.6-1.6,0c-0.1,0.7,0.4,1.8,1.2,2.5
		c20.5,16.9,40.9-11.2,61.4,0.9c0.8,0.5,1.5,0.3,1.6-0.4C-254.4-224.8-254.9-225.9-255.7-226.4z"/>
	<path fill="#1077BD" d="M-293.6-214.5c-8.3,2.1-16.5,2.3-24.8-5.1c-0.8-0.7-1.5-0.8-1.6-0.1c-0.1,0.7,0.4,1.9,1.2,2.6
		c8.3,7.7,16.5,7.7,24.8,5.7c0.8-0.2,1.5-1,1.6-1.9C-292.3-214.2-292.9-214.7-293.6-214.5z"/>
</g>
<g>
	<g>
		<linearGradient id="SVGID_1_" gradientUnits="userSpaceOnUse" x1="-111.6281" y1="-66.3656" x2="-111.6281" y2="-232.8656">
			<stop  offset="4.975124e-03" style="stop-color:#FFFFFF"/>
			<stop  offset="0.995" style="stop-color:#FFFFFF;stop-opacity:0.3"/>
		</linearGradient>
		<path fill="url(#SVGID_1_)" d="M-56.1-121.9c0,30.7-24.8,55.5-55.5,55.5s-55.5-24.8-55.5-55.5c0-40.5,55.5-111,55.5-111
			S-56.1-163.5-56.1-121.9z"/>
	</g>
	<g>
		<path fill="#1085C6" d="M-98.4-116.6c-7.2,3.3-10.3,11.8-6.9,19.2c3.3,7.3,11.9,10.6,19,7.4c7.1-3.3,10.2-11.8,6.9-19.2
			C-82.8-116.6-91.3-119.9-98.4-116.6 M-88-93.7c-5.2,2.4-11.4,0-13.8-5.4c-2.4-5.3-0.2-11.6,5-14c5.2-2.4,11.4,0,13.8,5.4
			C-80.5-102.3-82.8-96-88-93.7"/>
		<path fill="#1085C6" d="M-138.7-116.6c-7.1,3.3-10.2,11.8-6.9,19.2c3.3,7.3,11.9,10.6,19,7.4c7.2-3.3,10.3-11.9,6.9-19.2
			C-123.1-116.6-131.6-119.9-138.7-116.6 M-128.3-93.6c-5.2,2.4-11.4,0-13.8-5.4c-2.4-5.3-0.2-11.6,5-14c5.2-2.4,11.4,0,13.8,5.4
			C-120.8-102.3-123.1-96-128.3-93.6"/>
		<path fill="#1085C6" d="M-96.4-133.7c3.1,0.3,5.8-2,6.1-5.1c0.3-3.1-1.9-5.9-5-6.2c-3-0.3-5.8,2-6.1,5.1
			C-101.7-136.8-99.5-134-96.4-133.7"/>
		<path fill="#1085C6" d="M-90.5-124.1l-10.7-0.2c0,0-0.3-11.2-0.3-11.3c-0.1-2.1-3-3.1-4-3.2c-0.7-0.1-16-2.4-24.9,9.8
			c-1.1,1.6-1.3,3.5-0.3,5c0.4,0.8,1.8,1.7,2.4,2c0.6,0.2,14.1,5.9,14.1,5.9l-1.5,13.8c-0.3,1.6,0.7,3.1,2.2,3.3
			c1.6,0.3,2.5-0.8,2.8-2.4l2.6-16.1c0.2-1.2-0.3-2.4-1.4-3l-0.2-0.1l-10.8-6.1c5.7-4.6,13.9-3.5,14.6-3.4l0.7,7.8l0,0.1
			c0.1,1,0.9,1.8,1.9,1.8l12.6,0.3c1.1,0,2-0.8,2-1.9C-88.5-123.2-89.4-124.1-90.5-124.1z"/>
	</g>
</g>
<g>
	<g>
		<linearGradient id="SVGID_2_" gradientUnits="userSpaceOnUse" x1="183.8119" y1="-66" x2="183.8119" y2="-232.5">
			<stop  offset="4.975124e-03" style="stop-color:#FFFFFF"/>
			<stop  offset="0.995" style="stop-color:#FFFFFF;stop-opacity:0.3"/>
		</linearGradient>
		<path fill="url(#SVGID_2_)" d="M239.3-121.5c0,30.7-24.8,55.5-55.5,55.5s-55.5-24.8-55.5-55.5c0-40.5,55.5-111,55.5-111
			S239.3-163.1,239.3-121.5z"/>
	</g>
	<g>
		<circle fill="#1085C6" cx="190.4" cy="-158.8" r="4.9"/>
		<circle fill="#1085C6" cx="180.5" cy="-102" r="3.1"/>
		<path fill="#1085C6" d="M199.4-136.1l-7.9-3.4l0.6-3.1c1-4.8-0.2-9.9-3.4-10.6c-2.4-0.6-5.5,0.6-6.6,5.7l-3.4,14.8
			c-0.7,3.1,1.6,10.7,1.6,10.7l-2.7,8.4c-5.2,1.3-9.1,6-9.1,11.6c0,6.6,5.3,11.9,11.9,11.9c6.6,0,11.9-5.3,11.9-11.9
			c0-1.4-0.3-2.8-0.7-4c0.7-1.7,0.7-3.5,0-5.2c-0.5-1.2-1.2-2.3-1.8-3l5.7-17.8l1.7,0.8c0.3,0.1,0.6,0.2,1,0.2
			c1.1,0,2.1-0.6,2.5-1.6C201.4-134,200.8-135.5,199.4-136.1z M180.5-94.4c-4.1,0-7.5-3.4-7.5-7.5c0-4.1,3.4-7.5,7.5-7.5
			s7.5,3.4,7.5,7.5C188-97.8,184.6-94.4,180.5-94.4z M187.1-114.3c-0.1,0.4,0,0.9,0.3,1.3c0,0,1.2,1.5,1.8,2.9c0,0,0,0,0,0.1
			c-1.3-1.4-2.9-2.4-4.7-3.1l5.7-19.5l-5.1-2.2c-0.3-0.1-0.5-0.4-0.5-0.8l0.4-9.5c0-0.4,0.4-0.8,0.8-0.8c0.4,0,0.8,0.4,0.8,0.8
			l-0.3,9l7,3L187.1-114.3z"/>
		<polygon fill="#1085C6" points="177.5,-139.1 162.6,-139.1 162.6,-140.7 177.5,-140.7 		"/>
		<polygon fill="#1085C6" points="178.9,-143.6 169,-143.6 169,-145.2 178.9,-145.2 		"/>
		<polygon fill="#1085C6" points="176.3,-134.6 166.4,-134.6 166.4,-136.2 176.3,-136.2 		"/>
	</g>
</g>
<g>
	<g>
		<linearGradient id="SVGID_3_" gradientUnits="userSpaceOnUse" x1="330.8119" y1="-65.5" x2="330.8119" y2="-232">
			<stop  offset="4.975124e-03" style="stop-color:#FFFFFF"/>
			<stop  offset="0.995" style="stop-color:#FFFFFF;stop-opacity:0.3"/>
		</linearGradient>
		<path fill="url(#SVGID_3_)" d="M386.3-121c0,30.7-24.8,55.5-55.5,55.5s-55.5-24.8-55.5-55.5c0-40.5,55.5-111,55.5-111
			S386.3-162.6,386.3-121z"/>
	</g>
	<g>
		<path fill="#1085C6" d="M323.7-105.5l-6.6,14.1c-0.8,1.7-2.8,2.4-4.4,1.6c-1.6-0.8-2.3-2.7-1.6-4.3l6.1-14.3
			c0.8-1.8,2.9-2.7,4.7-1.9c1.8,0.8,2.7,2.9,1.9,4.7C323.8-105.6,323.8-105.5,323.7-105.5z"/>
		<path fill="#1085C6" d="M317.7-142.3c-0.9-0.7-2.1-0.4-2.7,0.5l-2.1,3.2c-0.6,0.9-1.1,2.6-1,3.7l0.7,16.2c0,1.1,1,2,2.1,2l0.6,0
			c1.1,0,2.3-0.9,2.6-1.9l5-17.6c0.3-1.1-0.2-2.5-1.1-3.1L317.7-142.3z"/>
		<g>
			<path fill="#1085C6" d="M347.2-121l-14.9-6.9l-2.9,11l8.3,8.3l0.1,0.1c0.6,0.6,1,1.5,1,2.3v13.4c0,1.8-1.5,3.3-3.3,3.3
				c-1.8,0-3.3-1.5-3.3-3.3v-11.8l-10.7-8.5c-1.2-1-1.7-2.5-1.5-3.9c-0.1-0.6-0.1-1.2,0.1-1.9l3.9-14.9c0.2-0.7,0.5-1.3,1-1.9
				c0.9-1.9,3.1-2.7,5-1.8c0.1,0.1,0.3,0.1,0.4,0.2l19.2,11.9c1.2,0.7,1.5,2.2,0.8,3.4C350.1-121.3,349-120.4,347.2-121z"/>
		</g>
		<path fill="#1085C6" d="M331.7-139.4c3,0.2,5.6-2.3,5.6-5.3c0.1-3.1-2.3-5.6-5.3-5.6c-3,0-5.5,2.5-5.5,5.5
			C326.6-142,328.9-139.6,331.7-139.4z"/>
	</g>
</g>
<g>
	<g>
		<linearGradient id="SVGID_4_" gradientUnits="userSpaceOnUse" x1="470.8119" y1="-66" x2="470.8119" y2="-232.5">
			<stop  offset="4.975124e-03" style="stop-color:#FFFFFF"/>
			<stop  offset="0.995" style="stop-color:#FFFFFF;stop-opacity:0.3"/>
		</linearGradient>
		<path fill="url(#SVGID_4_)" d="M526.3-121.5c0,30.7-24.8,55.5-55.5,55.5s-55.5-24.8-55.5-55.5c0-40.5,55.5-111,55.5-111
			S526.3-163.1,526.3-121.5z"/>
	</g>
	<g>
		<g>
			<path fill="#1085C6" d="M473.2-140c3,0.2,5.6-2.3,5.6-5.3c0.1-3.1-2.3-5.6-5.3-5.6c-3,0-5.5,2.5-5.5,5.5
				C468-142.6,470.3-140.1,473.2-140z"/>
			<path fill="#1085C6" d="M491.1-125.8l-19.2-11.9c-0.1-0.1-0.3-0.2-0.4-0.2c-1.9-0.9-4.1-0.1-5,1.8c-0.4,0.5-0.8,1.2-1,1.9
				l-3.9,14.9c-0.2,0.6-0.2,1.3-0.1,1.9c-0.1,0.5-0.1,0.9,0,1.4l-9.1,21.4c-0.7,1.6,0,3.5,1.6,4.3c1.7,0.8,3.6,0.1,4.4-1.6l8.3-18.6
				l6.8,5.5v11.8c0,1,0.2,1.6,0.9,2.2l5.8-15.5c0-0.8-0.3-1.7-1-2.3l-0.1-0.1l-8.3-8.3l2.9-11l13.8,6.5l-11.3,31.1
				c0,0.8,0.5,1.5,1.3,1.5c0,0,0.1,0,0.1,0c0.7,0,1.4-0.6,1.4-1.3l11.3-30.6c0.6-0.2,1.1-0.5,1.4-1.1
				C492.6-123.6,492.2-125.1,491.1-125.8z"/>
		</g>
		<path fill="#1085C6" d="M462.8-131.3l-12.7,7.9c-1.2,0.7-1.5,2.2-0.8,3.4c0.3,0.5,0.7,0.7,1.4,1.1c0.1,0,0.3,0,0.4,0l-9.9,27.1
			c0,0.8,0.5,1.5,1.3,1.5c0,0,0.1,0,0.1,0c0.7,0,1.4-0.6,1.4-1.3l10.5-28.5l6-2.8L462.8-131.3z"/>
	</g>
</g>
<g>
	<g>
		<linearGradient id="SVGID_5_" gradientUnits="userSpaceOnUse" x1="35.8119" y1="-65.5" x2="35.8119" y2="-232">
			<stop  offset="4.975124e-03" style="stop-color:#FFFFFF"/>
			<stop  offset="0.995" style="stop-color:#FFFFFF;stop-opacity:0.3"/>
		</linearGradient>
		<path fill="url(#SVGID_5_)" d="M91.3-121c0,30.7-24.8,55.5-55.5,55.5S-19.7-90.3-19.7-121c0-40.5,55.5-111,55.5-111
			S91.3-162.6,91.3-121z"/>
	</g>
	<g>
		<path fill="#1085C6" d="M63.2-93.9c-4.8,0-8.7-3.9-8.7-8.7c0-4.8,3.9-8.7,8.7-8.7s8.7,3.9,8.7,8.7C71.9-97.8,68-93.9,63.2-93.9
			L63.2-93.9z M63.2-107.7c-2.8,0-5.1,2.3-5.1,5.1c0,2.8,2.3,5.1,5.1,5.1c2.8,0,5.1-2.3,5.1-5.1C68.4-105.4,66-107.7,63.2-107.7
			L63.2-107.7z"/>
		<path fill="#1085C6" d="M51.7-101c-0.8,0-1.5-0.7-1.5-1.5c0-7.2,5.8-13,13-13c3.5,0,6.7,1.4,9.2,3.8c0.6,0.6,0.6,1.5,0,2.1
			c-0.6,0.6-1.5,0.6-2.1,0c-1.9-1.9-4.4-2.9-7.1-2.9c-5.5,0-10,4.5-10,10C53.2-101.7,52.6-101,51.7-101L51.7-101z"/>
		<path fill="#1085C6" d="M56.3-135.9c-2.7,0.1-4.9,1.9-4.9,4c0,2.2,2.2,3.9,4.9,4V-135.9z"/>
		<path fill="#1085C6" d="M55.7-119.6c-0.3-0.9-3.9-8.7-5-11.1c-0.2-0.5-0.8-0.9-1.4-0.9h-2.6c0.5-0.4,0.9-1,0.9-1.7
			c0-1.2-0.9-2.1-2.1-2.1h0l-7.5,0l-2.6-7.2c-0.1-0.2-0.1-0.3-0.2-0.5c-0.2-0.5-0.6-0.9-1.1-1.1c-1.1-0.6-2.8-0.8-3.8-0.5
			c-1.1,0.3-2.5,0.9-3.1,2.9l-3.3,14.1c-0.1,0.6-0.1,1.5,0.2,2.2c0.4,1.1,1.7,2.5,3.2,2.7l9,0.8c-0.3,0-0.8,0-1.4,0H11.6
			c-1,0-1.8,0.8-1.7,1.7c0,0.8,1,2.4,1.8,3.5c-5.6,3.3-10.2,12.3-10.2,12.3s-0.1,0.3-0.1,0.6c0,0.8,0.7,1.5,1.5,1.5h3.1
			c0.2,4.6,4,8.4,8.6,8.4c4.7,0,8.5-3.7,8.6-8.4H43c0.1,0,3.4,0,5.5-3.2c0.5-0.7,6.8-9.3,7.2-11C56.1-117.8,56.1-118.3,55.7-119.6z
			 M14.6-97.4c-2.7,0-5-2.1-5.1-4.8h10.2C19.5-99.6,17.3-97.4,14.6-97.4z M26-106.5c-0.1,0.4-0.5,0.6-0.8,0.6c-0.1,0-0.2,0-0.3-0.1
			c-0.5-0.2-0.7-0.7-0.5-1.2c0,0,1.3-3.6-0.7-6.4c-1.2-1.8-4.9-1.8-6.2-1.6c-0.5,0.1-0.9-0.3-1-0.8c-0.1-0.5,0.3-0.9,0.8-1
			c0.2,0,5.8-0.6,7.9,2.4C27.6-110.9,26-106.6,26-106.5z M52.8-117.2c-0.4,1-4.7,7.1-6.8,10c0,0,0,0,0,0.1c-1.2,1.8-2.9,1.8-3,1.8
			h-7.2c-2.2-1.6-4.6-4.2-4.1-8c0.5-4.2,5.6-6.6,5.8-7.8c0.1-0.5-0.2-0.8-0.4-0.9l4.9,0.4l-4,11.9c-0.4,1.6,0.9,2.9,1.6,3.2
			c1.3,0.4,3.5,0.3,4.3-3.2c0.2-0.7,4.3-13.3,4.3-13.3c0.6-2-1.1-4.2-3.3-4.5l-11.7-1.9l0.3-1.4c0,0-3.3-6.6-3.3-6.6
			c-0.2-0.4,0-1,0.4-1.2c0.4-0.2,1,0,1.2,0.4l3,6.2c0.2,0.5,0.9,0.7,1.5,0.7h0l7.3,0c-0.3,0.3-0.5,0.7-0.5,1.1
			c0,0.8,0.7,1.5,1.5,1.5h3.6c2.1,4.5,4.3,9.2,4.4,9.8C53-118,53-118,52.8-117.2z"/>
		<circle fill="#1085C6" cx="34" cy="-150.5" r="4.9"/>
	</g>
</g>
<g>
	<g>
		<polygon fill="#1085C6" points="-45,26.6 -43.3,21.6 -41.7,26.6 -36.4,26.6 -40.7,29.7 -39.1,34.7 -43.3,31.6 -47.6,34.7 
			-46,29.7 -50.2,26.6 		"/>
		<polygon fill="#1085C6" points="-121.6,27.4 -120,22.3 -118.3,27.4 -113.1,27.4 -117.3,30.5 -115.7,35.5 -120,32.4 -124.2,35.5 
			-122.6,30.5 -126.9,27.4 		"/>
		<polygon fill="#1085C6" points="-132,49.3 -126.7,49.3 -125.1,44.3 -123.5,49.3 -118.2,49.3 -122.5,52.4 -120.8,57.4 -125.1,54.3 
			-129.4,57.4 -127.7,52.4 		"/>
		<polygon fill="#1085C6" points="-115.5,79.6 -119.8,76.5 -124.1,79.6 -122.4,74.5 -126.7,71.4 -121.4,71.4 -119.8,66.5 
			-118.2,71.4 -112.9,71.4 -117.2,74.5 		"/>
		<polygon fill="#1085C6" points="-99.6,95.3 -103.9,92.2 -108.1,95.3 -106.5,90.3 -110.8,87.2 -105.5,87.2 -103.9,82.2 
			-102.2,87.2 -97,87.2 -101.2,90.3 		"/>
		<polygon fill="#1085C6" points="-101.2,13.8 -99.6,18.8 -103.9,15.7 -108.1,18.8 -106.5,13.8 -110.8,10.7 -105.5,10.7 -103.9,5.7 
			-102.2,10.7 -97,10.7 		"/>
		<polygon fill="#1085C6" points="-77.1,101.2 -81.3,98.1 -85.6,101.2 -84,96.2 -88.2,93.1 -83,93.1 -81.3,88.1 -79.7,93.1 
			-74.4,93.1 -78.7,96.2 		"/>
		<polygon fill="#1085C6" points="-78.7,8.1 -77.1,13.1 -81.3,10 -85.6,13.1 -84,8.1 -88.2,5 -83,5 -81.3,0 -79.7,5 -74.4,5 		"/>
		<polygon fill="#1085C6" points="-61.6,10.7 -59.9,5.7 -58.3,10.7 -53,10.7 -57.3,13.8 -55.7,18.8 -59.9,15.7 -64.2,18.8 
			-62.6,13.8 -66.8,10.7 		"/>
		<polygon fill="#1085C6" points="-55.1,95.2 -59.4,92.2 -63.7,95.2 -62,90.2 -66.3,87.1 -61,87.1 -59.4,82.1 -57.8,87.1 
			-52.5,87.1 -56.8,90.2 		"/>
		<polygon fill="#1085C6" points="-39.2,79.4 -43.4,76.3 -47.7,79.4 -46.1,74.4 -50.3,71.3 -45.1,71.3 -43.4,66.3 -41.8,71.3 
			-36.6,71.3 -40.8,74.4 		"/>
		<polygon fill="#1085C6" points="-33.3,57.1 -37.6,54 -41.9,57.1 -40.2,52.1 -44.5,49 -39.2,49 -37.6,43.9 -35.9,49 -30.7,49 
			-34.9,52.1 		"/>
	</g>
	<text transform="matrix(1 0 0 1 -104.0402 55.7721)"><tspan x="0" y="0" fill="#1085C6" font-family="'Panton-Regular'" font-size="34.5186" letter-spacing="2">E</tspan><tspan x="21.9" y="0" fill="#1085C6" font-family="'Panton-Regular'" font-size="34.5186">U</tspan><tspan x="1.4" y="17" fill="#1085C6" font-family="'Panton-Bold'" font-size="15.7">MADE</tspan></text>
</g>
<g>
	<g>
		<polygon fill="#F8F8F8" points="87,26.6 88.7,21.6 90.3,26.6 95.6,26.6 91.3,29.7 92.9,34.7 88.7,31.6 84.4,34.7 86,29.7 
			81.8,26.6 		"/>
		<polygon fill="#F8F8F8" points="10.4,27.4 12,22.3 13.7,27.4 18.9,27.4 14.7,30.5 16.3,35.5 12,32.4 7.8,35.5 9.4,30.5 5.1,27.4 
					"/>
		<polygon fill="#F8F8F8" points="0,49.3 5.3,49.3 6.9,44.3 8.5,49.3 13.8,49.3 9.5,52.4 11.2,57.4 6.9,54.3 2.6,57.4 4.3,52.4 		
			"/>
		<polygon fill="#F8F8F8" points="16.5,79.6 12.2,76.5 7.9,79.6 9.6,74.5 5.3,71.4 10.6,71.4 12.2,66.5 13.8,71.4 19.1,71.4 
			14.8,74.5 		"/>
		<polygon fill="#F8F8F8" points="32.4,95.3 28.1,92.2 23.9,95.3 25.5,90.3 21.2,87.2 26.5,87.2 28.1,82.2 29.8,87.2 35,87.2 
			30.8,90.3 		"/>
		<polygon fill="#F8F8F8" points="30.8,13.8 32.4,18.8 28.1,15.7 23.9,18.8 25.5,13.8 21.2,10.7 26.5,10.7 28.1,5.7 29.8,10.7 
			35,10.7 		"/>
		<polygon fill="#F8F8F8" points="54.9,101.2 50.7,98.1 46.4,101.2 48,96.2 43.8,93.1 49,93.1 50.7,88.1 52.3,93.1 57.6,93.1 
			53.3,96.2 		"/>
		<polygon fill="#F8F8F8" points="53.3,8.1 54.9,13.1 50.7,10 46.4,13.1 48,8.1 43.8,5 49,5 50.7,0 52.3,5 57.6,5 		"/>
		<polygon fill="#F8F8F8" points="70.4,10.7 72.1,5.7 73.7,10.7 79,10.7 74.7,13.8 76.3,18.8 72.1,15.7 67.8,18.8 69.4,13.8 
			65.2,10.7 		"/>
		<polygon fill="#F8F8F8" points="76.9,95.2 72.6,92.2 68.3,95.2 70,90.2 65.7,87.1 71,87.1 72.6,82.1 74.2,87.1 79.5,87.1 
			75.2,90.2 		"/>
		<polygon fill="#F8F8F8" points="92.8,79.4 88.6,76.3 84.3,79.4 85.9,74.4 81.7,71.3 86.9,71.3 88.6,66.3 90.2,71.3 95.4,71.3 
			91.2,74.4 		"/>
		<polygon fill="#F8F8F8" points="98.7,57.1 94.4,54 90.1,57.1 91.8,52.1 87.5,49 92.8,49 94.4,43.9 96.1,49 101.3,49 97.1,52.1 		
			"/>
	</g>
	<g>
		<path fill="#F8F8F8" d="M46,32v1c0,0.5-0.2,0.7-0.7,0.7H33.1v8.6h10.6c0.5,0,0.7,0.2,0.7,0.7v1c0,0.5-0.2,0.7-0.7,0.7H33.1v8.9
			h12.6c0.5,0,0.7,0.2,0.7,0.7v1c0,0.5-0.2,0.7-0.7,0.7H31.3c-0.5,0-0.7-0.2-0.7-0.7V32c0-0.5,0.2-0.7,0.7-0.7h14
			C45.8,31.3,46,31.4,46,32z"/>
		<path fill="#F8F8F8" d="M61.6,53.9c4.6,0,6.8-2.5,6.8-6.5V32c0-0.5,0.2-0.7,0.7-0.7h1.1c0.5,0,0.7,0.2,0.7,0.7v15.5
			c0,5.4-3.1,8.9-9.3,8.9c-6.2,0-9.3-3.5-9.3-8.9V32c0-0.5,0.2-0.7,0.7-0.7h1.1c0.5,0,0.7,0.2,0.7,0.7v15.5
			C54.8,51.5,57,53.9,61.6,53.9z"/>
		<path fill="#F8F8F8" d="M41,62.2v10.1c0,0.4-0.1,0.5-0.5,0.5h-0.8c-0.4,0-0.5-0.1-0.5-0.5v-4.8c0-0.9,0.1-1.9,0.4-3.1h-0.1
			c-0.4,1.2-0.8,2-1.3,2.9l-1.5,2.7c-0.2,0.3-0.3,0.4-0.6,0.4h-0.5c-0.3,0-0.4-0.1-0.6-0.4l-1.6-2.7c-0.5-0.9-0.8-1.6-1.2-2.9h-0.1
			c0.2,1.2,0.3,2.2,0.3,3.1v4.8c0,0.4-0.1,0.5-0.5,0.5H31c-0.4,0-0.5-0.1-0.5-0.5V62.2c0-0.4,0.1-0.5,0.5-0.5h0.7
			c0.4,0,0.6,0.1,0.8,0.4l3.3,5.8L39,62c0.2-0.3,0.3-0.4,0.7-0.4h0.8C40.9,61.6,41,61.8,41,62.2z"/>
		<path fill="#F8F8F8" d="M51.9,72.8h-0.8c-0.7,0-0.8-0.1-1-0.5l-0.7-2H45l-0.7,2c-0.1,0.4-0.3,0.5-1,0.5h-0.7
			c-0.4,0-0.5-0.2-0.4-0.5L46.2,62c0.1-0.4,0.3-0.4,0.7-0.4h0.8c0.4,0,0.5,0.1,0.7,0.4l3.9,10.2C52.4,72.6,52.3,72.8,51.9,72.8z
			 M47.2,63.4h-0.1c0,0,0,0.9-0.3,1.9l-1.2,3.3h3.2l-1.2-3.3C47.3,64.4,47.3,63.4,47.2,63.4z"/>
		<path fill="#F8F8F8" d="M62.1,65.8v2.9c0,2.6-1.6,4.1-4.6,4.1H54c-0.4,0-0.5-0.1-0.5-0.5V62.2c0-0.4,0.1-0.5,0.5-0.5h3.5
			C60.5,61.6,62.1,63.2,62.1,65.8z M57.6,63.5h-2.1v7.5h2.1c1.6,0,2.6-0.8,2.6-2.3v-2.9C60.2,64.3,59.2,63.5,57.6,63.5z"/>
		<path fill="#F8F8F8" d="M71.3,62.2v0.8c0,0.4-0.1,0.5-0.6,0.5h-4.8v2.7H70c0.4,0,0.5,0.1,0.5,0.5v0.8c0,0.4-0.1,0.5-0.5,0.5h-4.1
			v2.9h5c0.4,0,0.5,0.1,0.5,0.5v0.8c0,0.4-0.1,0.5-0.5,0.5h-6.4c-0.4,0-0.6-0.1-0.6-0.5V62.2c0-0.4,0.1-0.5,0.6-0.5h6.2
			C71.1,61.6,71.3,61.8,71.3,62.2z"/>
	</g>
</g>
</svg>
