<?xml version="1.0" encoding="utf-8"?>
<!-- Generator: Adobe Illustrator 18.1.1, SVG Export Plug-In . SVG Version: 6.00 Build 0)  -->
<svg version="1.1" id="Ebene_1" xmlns="http://www.w3.org/2000/svg" xmlns:xlink="http://www.w3.org/1999/xlink" x="0px" y="0px"
	 viewBox="0 0 111 166.5" enable-background="new 0 0 111 166.5" xml:space="preserve">
<g>
	<g>
		<linearGradient id="SVGID_1_" gradientUnits="userSpaceOnUse" x1="55.5" y1="166.5" x2="55.5" y2="0">
			<stop  offset="4.975124e-03" style="stop-color:#FFFFFF"/>
			<stop  offset="0.995" style="stop-color:#FFFFFF;stop-opacity:0.3"/>
		</linearGradient>
		<path fill="url(#SVGID_1_)" d="M111,111c0,30.7-24.8,55.5-55.5,55.5S0,141.7,0,111C0,70.5,55.5,0,55.5,0S111,69.4,111,111z"/>
	</g>
	<g>
		<path fill="#1085C6" d="M82.9,138.1c-4.8,0-8.7-3.9-8.7-8.7c0-4.8,3.9-8.7,8.7-8.7s8.7,3.9,8.7,8.7
			C91.6,134.2,87.7,138.1,82.9,138.1L82.9,138.1z M82.9,124.3c-2.8,0-5.1,2.3-5.1,5.1c0,2.8,2.3,5.1,5.1,5.1c2.8,0,5.1-2.3,5.1-5.1
			C88,126.6,85.7,124.3,82.9,124.3L82.9,124.3z"/>
		<path fill="#1085C6" d="M71.4,131c-0.8,0-1.5-0.7-1.5-1.5c0-7.2,5.8-13,13-13c3.5,0,6.7,1.4,9.2,3.8c0.6,0.6,0.6,1.5,0,2.1
			c-0.6,0.6-1.5,0.6-2.1,0c-1.9-1.9-4.4-2.9-7.1-2.9c-5.5,0-10,4.5-10,10C72.9,130.3,72.3,131,71.4,131L71.4,131z"/>
		<path fill="#1085C6" d="M76,96.1c-2.7,0.1-4.9,1.9-4.9,4c0,2.2,2.2,3.9,4.9,4V96.1z"/>
		<path fill="#1085C6" d="M75.4,112.4c-0.3-0.9-3.9-8.7-5-11.1c-0.2-0.5-0.8-0.9-1.4-0.9h-2.6c0.5-0.4,0.9-1,0.9-1.7
			c0-1.2-0.9-2.1-2.1-2.1h0l-7.5,0L55,89.5c-0.1-0.2-0.1-0.3-0.2-0.5c-0.2-0.5-0.6-0.9-1.1-1.1c-1.1-0.6-2.8-0.8-3.8-0.5
			c-1.1,0.3-2.5,0.9-3.1,2.9l-3.3,14.1c-0.1,0.6-0.1,1.5,0.2,2.2c0.4,1.1,1.7,2.5,3.2,2.7l9,0.8c-0.3,0-0.8,0-1.4,0H31.3
			c-1,0-1.8,0.8-1.7,1.7c0,0.8,1,2.4,1.8,3.5c-5.6,3.3-10.2,12.3-10.2,12.3s-0.1,0.3-0.1,0.6c0,0.8,0.7,1.5,1.5,1.5h3.1
			c0.2,4.6,4,8.4,8.6,8.4c4.7,0,8.5-3.7,8.6-8.4h19.8c0.1,0,3.4,0,5.5-3.2c0.5-0.7,6.8-9.3,7.2-11C75.8,114.2,75.8,113.7,75.4,112.4
			z M34.3,134.6c-2.7,0-5-2.1-5.1-4.8h10.2C39.2,132.4,37,134.6,34.3,134.6z M45.6,125.5c-0.1,0.4-0.5,0.6-0.8,0.6
			c-0.1,0-0.2,0-0.3-0.1c-0.5-0.2-0.7-0.7-0.5-1.2c0,0,1.3-3.6-0.7-6.4c-1.2-1.8-4.9-1.8-6.2-1.6c-0.5,0.1-0.9-0.3-1-0.8
			c-0.1-0.5,0.3-0.9,0.8-1c0.2,0,5.8-0.6,7.9,2.4C47.2,121.1,45.7,125.4,45.6,125.5z M72.5,114.8c-0.4,1-4.7,7.1-6.8,10
			c0,0,0,0,0,0.1c-1.2,1.8-2.9,1.8-3,1.8h-7.2c-2.2-1.6-4.6-4.2-4.1-8c0.5-4.2,5.6-6.6,5.8-7.8c0.1-0.5-0.2-0.8-0.4-0.9l4.9,0.4
			l-4,11.9c-0.4,1.6,0.9,2.9,1.6,3.2c1.3,0.4,3.5,0.3,4.3-3.2c0.2-0.7,4.3-13.3,4.3-13.3c0.6-2-1.1-4.2-3.3-4.5L53,102.8l0.3-1.4
			c0,0-3.3-6.6-3.3-6.6c-0.2-0.4,0-1,0.4-1.2c0.4-0.2,1,0,1.2,0.4l3,6.2c0.2,0.5,0.9,0.7,1.5,0.7h0l7.3,0c-0.3,0.3-0.5,0.7-0.5,1.1
			c0,0.8,0.7,1.5,1.5,1.5H68c2.1,4.5,4.3,9.2,4.4,9.8C72.7,114,72.7,114,72.5,114.8z"/>
		<circle fill="#1085C6" cx="53.7" cy="81.5" r="4.9"/>
	</g>
</g>
</svg>
