<?xml version="1.0" encoding="utf-8"?>
<!-- Generator: Adobe Illustrator 18.1.1, SVG Export Plug-In . SVG Version: 6.00 Build 0)  -->
<svg version="1.1" id="Ebene_1" xmlns="http://www.w3.org/2000/svg" xmlns:xlink="http://www.w3.org/1999/xlink" x="0px" y="0px"
	 viewBox="0 0 73.6 44.9" enable-background="new 0 0 73.6 44.9" xml:space="preserve">
<g id="Your_Icon_1_">
	<path fill="#1077BD" d="M62.6,12.6c0.8,0.3,1.5,0,1.6-0.7c0.1-0.7-0.4-1.7-1.2-2c-20.5-8.7-40.9,19-61.4-2C0.9,7.1,0.1,6.9,0,7.5
		c-0.1,0.6,0.4,1.9,1.2,2.8C21.7,32.1,42.1,4.4,62.6,12.6z"/>
	<path fill="#1077BD" d="M23.4,9.9C31.7,8.8,39.9,4.6,48.2,3c0.8-0.2,1.5-0.9,1.6-1.7C50,0.5,49.4-0.1,48.6,0
		c-8.3,1.5-16.5,5.7-24.8,6.9c-0.8,0.1-1.5,0.8-1.6,1.7C22.1,9.4,22.6,10,23.4,9.9z"/>
	<path fill="#1077BD" d="M72.4,25.4C51.9,3.6,31.4,31.3,11,23.1c-0.8-0.3-1.5,0-1.6,0.7c-0.1,0.7,0.4,1.7,1.2,2
		c20.5,8.7,40.9-19,61.4,2c0.8,0.8,1.5,1,1.6,0.3C73.7,27.5,73.1,26.2,72.4,25.4z"/>
	<path fill="#1077BD" d="M66.2,28.9C45.7,16.2,25.3,44.4,4.8,28.1c-0.8-0.6-1.5-0.6-1.6,0C3,28.8,3.6,30,4.4,30.6
		c20.5,16.9,40.9-11.2,61.4,0.9c0.8,0.5,1.5,0.3,1.6-0.4C67.5,30.4,67,29.4,66.2,28.9z"/>
	<path fill="#1077BD" d="M28.2,40.7C20,42.8,11.7,43,3.4,35.6c-0.8-0.7-1.5-0.8-1.6-0.1c-0.1,0.7,0.4,1.9,1.2,2.6
		c8.3,7.7,16.5,7.7,24.8,5.7c0.8-0.2,1.5-1,1.6-1.9C29.5,41,29,40.5,28.2,40.7z"/>
</g>
</svg>
