<?xml version="1.0" encoding="utf-8"?>
<!-- Generator: Adobe Illustrator 18.1.1, SVG Export Plug-In . SVG Version: 6.00 Build 0)  -->
<svg version="1.1" id="Ebene_1" xmlns="http://www.w3.org/2000/svg" xmlns:xlink="http://www.w3.org/1999/xlink" x="0px" y="0px"
	 viewBox="0 0 111 166.5" enable-background="new 0 0 111 166.5" xml:space="preserve">
<g>
	<g>
		<linearGradient id="SVGID_1_" gradientUnits="userSpaceOnUse" x1="55.5" y1="166.5" x2="55.5" y2="0">
			<stop  offset="4.975124e-03" style="stop-color:#FFFFFF"/>
			<stop  offset="0.995" style="stop-color:#FFFFFF;stop-opacity:0.3"/>
		</linearGradient>
		<path fill="url(#SVGID_1_)" d="M111,111c0,30.7-24.8,55.5-55.5,55.5S0,141.7,0,111C0,70.5,55.5,0,55.5,0S111,69.4,111,111z"/>
	</g>
	<g>
		<circle fill="#1085C6" cx="62" cy="73.7" r="4.9"/>
		<circle fill="#1085C6" cx="52.2" cy="130.5" r="3.1"/>
		<path fill="#1085C6" d="M71.1,96.4L63.2,93l0.6-3.1c1-4.8-0.2-9.9-3.4-10.6C58,78.8,55,80,53.8,85.1l-3.4,14.8
			c-0.7,3.1,1.6,10.7,1.6,10.7l-2.7,8.4c-5.2,1.3-9.1,6-9.1,11.6c0,6.6,5.3,11.9,11.9,11.9c6.6,0,11.9-5.3,11.9-11.9
			c0-1.4-0.3-2.8-0.7-4c0.7-1.7,0.7-3.5,0-5.2c-0.5-1.2-1.2-2.3-1.8-3l5.7-17.8l1.7,0.8c0.3,0.1,0.6,0.2,1,0.2
			c1.1,0,2.1-0.6,2.5-1.6C73.1,98.5,72.4,97,71.1,96.4z M52.2,138.1c-4.1,0-7.5-3.4-7.5-7.5c0-4.1,3.4-7.5,7.5-7.5s7.5,3.4,7.5,7.5
			C59.7,134.7,56.3,138.1,52.2,138.1z M58.8,118.2c-0.1,0.4,0,0.9,0.3,1.3c0,0,1.2,1.5,1.8,2.9c0,0,0,0,0,0.1
			c-1.3-1.4-2.9-2.4-4.7-3.1l5.7-19.5l-5.1-2.2c-0.3-0.1-0.5-0.4-0.5-0.8l0.4-9.5c0-0.4,0.4-0.8,0.8-0.8c0.4,0,0.8,0.4,0.8,0.8
			l-0.3,9l7,3L58.8,118.2z"/>
		<polygon fill="#1085C6" points="49.2,93.4 34.3,93.4 34.3,91.8 49.2,91.8 		"/>
		<polygon fill="#1085C6" points="50.5,88.9 40.7,88.9 40.7,87.3 50.5,87.3 		"/>
		<polygon fill="#1085C6" points="48,97.9 38.1,97.9 38.1,96.3 48,96.3 		"/>
	</g>
</g>
</svg>
