<?xml version="1.0" encoding="utf-8"?>
<!-- Generator: Adobe Illustrator 18.1.1, SVG Export Plug-In . SVG Version: 6.00 Build 0)  -->
<svg version="1.1" id="Ebene_1" xmlns="http://www.w3.org/2000/svg" xmlns:xlink="http://www.w3.org/1999/xlink" x="0px" y="0px"
	 viewBox="0 0 111 166.5" enable-background="new 0 0 111 166.5" xml:space="preserve">
<g>
	<g>
		<linearGradient id="SVGID_1_" gradientUnits="userSpaceOnUse" x1="55.5" y1="166.5" x2="55.5" y2="-1.818989e-12">
			<stop  offset="4.975124e-03" style="stop-color:#FFFFFF"/>
			<stop  offset="0.995" style="stop-color:#FFFFFF;stop-opacity:0.3"/>
		</linearGradient>
		<path fill="url(#SVGID_1_)" d="M111,111c0,30.7-24.8,55.5-55.5,55.5S0,141.7,0,111C0,70.5,55.5,0,55.5,0S111,69.4,111,111z"/>
	</g>
	<g>
		<g>
			<path fill="#1085C6" d="M57.9,92.5c3,0.2,5.6-2.3,5.6-5.3c0.1-3.1-2.3-5.6-5.3-5.6c-3,0-5.5,2.5-5.5,5.5
				C52.7,89.9,55,92.4,57.9,92.5z"/>
			<path fill="#1085C6" d="M75.8,106.7L56.6,94.8c-0.1-0.1-0.3-0.2-0.4-0.2c-1.9-0.9-4.1-0.1-5,1.8c-0.4,0.5-0.8,1.2-1,1.9
				l-3.9,14.9c-0.2,0.6-0.2,1.3-0.1,1.9c-0.1,0.5-0.1,0.9,0,1.4l-9.1,21.4c-0.7,1.6,0,3.5,1.6,4.3c1.7,0.8,3.6,0.1,4.4-1.6l8.3-18.6
				l6.8,5.5v11.8c0,1,0.2,1.6,0.9,2.2l5.8-15.5c0-0.8-0.3-1.7-1-2.3l-0.1-0.1l-8.3-8.3l2.9-11l13.8,6.5L61,141.6
				c0,0.8,0.5,1.5,1.3,1.5c0,0,0.1,0,0.1,0c0.7,0,1.4-0.6,1.4-1.3l11.3-30.6c0.6-0.2,1.1-0.5,1.4-1.1
				C77.3,108.9,76.9,107.4,75.8,106.7z"/>
		</g>
		<path fill="#1085C6" d="M47.5,101.2l-12.7,7.9c-1.2,0.7-1.5,2.2-0.8,3.4c0.3,0.5,0.7,0.7,1.4,1.1c0.1,0,0.3,0,0.4,0L26,140.8
			c0,0.8,0.5,1.5,1.3,1.5c0,0,0.1,0,0.1,0c0.7,0,1.4-0.6,1.4-1.3l10.5-28.5l6-2.8L47.5,101.2z"/>
	</g>
</g>
</svg>
