<?xml version="1.0" encoding="utf-8"?>
<!-- Generator: Adobe Illustrator 18.1.1, SVG Export Plug-In . SVG Version: 6.00 Build 0)  -->
<svg version="1.1" id="Ebene_1" xmlns="http://www.w3.org/2000/svg" xmlns:xlink="http://www.w3.org/1999/xlink" x="0px" y="0px"
	 viewBox="0 0 59.2 64.1" enable-background="new 0 0 59.2 64.1" xml:space="preserve">
<g>
	<path fill="#1077BD" d="M51.9,14.9l2.7-2.9c0.5-0.6,0.5-1.5-0.1-2l-3.2-3c-0.6-0.5-1.5-0.5-2,0.1l-2.8,3c0,0,0.3,0,0.2,0.1
		c-3.4-2.4-7.4-4-11.4-4.8V4c0-0.8-0.3-2.9-0.3-2.9c0-0.8-0.9-1.2-1.8-1.2h-7.4c-0.8,0-1.5,0.3-1.5,1.2c0,0,0,2.1,0,2.9v1.2
		c-4,0.7-7.8,2.3-11.1,4.5L10.7,7c-0.5-0.6-1.4-0.6-2-0.1l-3.2,3c-0.6,0.5-0.6,1.5,0,2l2.3,2.4C2.9,19.7,0,26.7,0,34.4
		c0,16.4,13.3,29.6,29.6,29.6s29.6-13.3,29.6-29.6C59.3,26.9,56.5,20.1,51.9,14.9z M29.6,60.8C15,60.8,3.2,49,3.2,34.4S15,8,29.6,8
		S56,19.9,56,34.4S44.2,60.8,29.6,60.8z"/>
	<path fill="#1077BD" d="M29.9,21.4c0.6,0,1.5-0.5,1.5-1.1v-5.9c0-0.6-0.9-1.1-1.5-1.1s-1.5,0.5-1.5,1.1v5.9
		C28.4,20.9,29.3,21.4,29.9,21.4z"/>
	<path fill="#1077BD" d="M20.6,16.5c-0.3-0.5-1-0.7-1.5-0.4c-0.5,0.3-0.7,1-0.4,1.5l3,5.1c0.2,0.4,0.6,0.6,1,0.6
		c0.2,0,0.4,0,0.6-0.1c0.5-0.3,0.7-1,0.4-1.5L20.6,16.5z"/>
	<path fill="#1077BD" d="M11.8,25.4l5.1,3c0.2,0.1,0.4,0.1,0.6,0.1c0.4,0,0.8-0.2,1-0.6c0.3-0.5,0.1-1.2-0.4-1.5l-5.1-3
		c-0.5-0.3-1.2-0.1-1.5,0.4C11,24.4,11.2,25.1,11.8,25.4z"/>
	<path fill="#1077BD" d="M16.7,35c0-0.6-0.5-1-1.1-1H9.6c-0.6,0-1.1,0.4-1.1,1c0,0.6,0.5,1,1.1,1h5.9C16.2,36,16.7,35.6,16.7,35z"/>
	<path fill="#1077BD" d="M18.4,40.9c-0.3-0.5-1-0.7-1.5-0.4l-5.1,3c-0.5,0.3-0.7,1-0.4,1.5c0.2,0.4,0.6,0.6,1,0.6
		c0.2,0,0.4,0,0.6-0.1l5.1-3C18.5,42.1,18.7,41.4,18.4,40.9z"/>
	<path fill="#1077BD" d="M23.1,45.6c-0.5-0.3-1.2-0.1-1.5,0.4l-3,5.1c-0.3,0.5-0.1,1.2,0.4,1.5c0.2,0.1,0.4,0.1,0.6,0.1
		c0.4,0,0.8-0.2,1-0.6l3-5.1C23.9,46.6,23.7,45.9,23.1,45.6z"/>
	<path fill="#1077BD" d="M29.9,47.4c-0.6,0-1.5,0.5-1.5,1.1v5.9c0,0.6,0.9,1.1,1.5,1.1s1.5-0.5,1.5-1.1v-5.9
		C31.4,47.9,30.5,47.4,29.9,47.4z"/>
	<path fill="#1077BD" d="M37.6,46c-0.3-0.5-1-0.7-1.5-0.4c-0.5,0.3-0.7,1-0.4,1.5l3,5.1c0.2,0.4,0.6,0.6,1,0.6c0.2,0,0.4,0,0.6-0.1
		c0.5-0.3,0.7-1,0.4-1.5L37.6,46z"/>
	<path fill="#1077BD" d="M47.5,43.4l-5.1-3c-0.5-0.3-1.2-0.1-1.5,0.4c-0.3,0.5-0.1,1.2,0.4,1.5l5.1,3c0.2,0.1,0.4,0.1,0.6,0.1
		c0.4,0,0.8-0.2,1-0.6C48.2,44.4,48,43.7,47.5,43.4z"/>
	<path fill="#1077BD" d="M49.6,34h-5.9c-0.6,0-1.1,0.4-1.1,1c0,0.6,0.5,1,1.1,1h5.9c0.6,0,1.1-0.4,1.1-1C50.7,34.4,50.2,34,49.6,34z
		"/>
	<path fill="#1077BD" d="M36.1,23.2c0.2,0.1,0.4,0.1,0.6,0.1c0.4,0,0.8-0.2,1-0.6l3-5.1c0.3-0.5,0.1-1.2-0.4-1.5
		c-0.5-0.3-1.2-0.1-1.5,0.4l-3,5.1C35.4,22.2,35.6,22.9,36.1,23.2z"/>
	<path fill="#1077BD" d="M30.7,35.6L48,26.4c1.1-0.6,1.5-1.9,0.9-3c-0.6-1.1-1.9-1.5-3-0.9l-17.3,9.3c-1.1,0.6-1.5,1.9-0.9,3
		c0.4,0.7,1.2,1.2,2,1.2C30,35.9,30.3,35.8,30.7,35.6z"/>
</g>
</svg>
