<?xml version="1.0" encoding="utf-8"?>
<!-- Generator: Adobe Illustrator 18.1.1, SVG Export Plug-In . SVG Version: 6.00 Build 0)  -->
<!DOCTYPE svg PUBLIC "-//W3C//DTD SVG 1.1//EN" "http://www.w3.org/Graphics/SVG/1.1/DTD/svg11.dtd">
<svg version="1.1" id="Ebene_1" xmlns="http://www.w3.org/2000/svg" xmlns:xlink="http://www.w3.org/1999/xlink" x="0px" y="0px"
	 viewBox="0 0 101.3 101.2" enable-background="new 0 0 101.3 101.2" xml:space="preserve">
<g>
	<g>
		<polygon fill="#1085C6" points="87,26.6 88.7,21.6 90.3,26.6 95.6,26.6 91.3,29.7 92.9,34.7 88.7,31.6 84.4,34.7 86,29.7 
			81.8,26.6 		"/>
		<polygon fill="#1085C6" points="10.4,27.4 12,22.3 13.7,27.4 18.9,27.4 14.7,30.5 16.3,35.5 12,32.4 7.8,35.5 9.4,30.5 5.1,27.4 
					"/>
		<polygon fill="#1085C6" points="0,49.3 5.3,49.3 6.9,44.3 8.5,49.3 13.8,49.3 9.5,52.4 11.2,57.4 6.9,54.3 2.6,57.4 4.3,52.4 		
			"/>
		<polygon fill="#1085C6" points="16.5,79.6 12.2,76.5 7.9,79.6 9.6,74.5 5.3,71.4 10.6,71.4 12.2,66.5 13.8,71.4 19.1,71.4 
			14.8,74.5 		"/>
		<polygon fill="#1085C6" points="32.4,95.3 28.1,92.2 23.9,95.3 25.5,90.3 21.2,87.2 26.5,87.2 28.1,82.2 29.8,87.2 35,87.2 
			30.8,90.3 		"/>
		<polygon fill="#1085C6" points="30.8,13.8 32.4,18.8 28.1,15.7 23.9,18.8 25.5,13.8 21.2,10.7 26.5,10.7 28.1,5.7 29.8,10.7 
			35,10.7 		"/>
		<polygon fill="#1085C6" points="54.9,101.2 50.7,98.1 46.4,101.2 48,96.2 43.8,93.1 49,93.1 50.7,88.1 52.3,93.1 57.6,93.1 
			53.3,96.2 		"/>
		<polygon fill="#1085C6" points="53.3,8.1 54.9,13.1 50.7,10 46.4,13.1 48,8.1 43.8,5 49,5 50.7,0 52.3,5 57.6,5 		"/>
		<polygon fill="#1085C6" points="70.4,10.7 72.1,5.7 73.7,10.7 79,10.7 74.7,13.8 76.3,18.8 72.1,15.7 67.8,18.8 69.4,13.8 
			65.2,10.7 		"/>
		<polygon fill="#1085C6" points="76.9,95.2 72.6,92.2 68.3,95.2 70,90.2 65.7,87.1 71,87.1 72.6,82.1 74.2,87.1 79.5,87.1 
			75.2,90.2 		"/>
		<polygon fill="#1085C6" points="92.8,79.4 88.6,76.3 84.3,79.4 85.9,74.4 81.7,71.3 86.9,71.3 88.6,66.3 90.2,71.3 95.4,71.3 
			91.2,74.4 		"/>
		<polygon fill="#1085C6" points="98.7,57.1 94.4,54 90.1,57.1 91.8,52.1 87.5,49 92.8,49 94.4,43.9 96.1,49 101.3,49 97.1,52.1 		
			"/>
	</g>
	<g>
		<path fill="#1085C6" d="M46,32v1c0,0.5-0.2,0.7-0.7,0.7H33.1v8.6h10.6c0.5,0,0.7,0.2,0.7,0.7v1c0,0.5-0.2,0.7-0.7,0.7H33.1v8.9
			h12.6c0.5,0,0.7,0.2,0.7,0.7v1c0,0.5-0.2,0.7-0.7,0.7H31.3c-0.5,0-0.7-0.2-0.7-0.7V32c0-0.5,0.2-0.7,0.7-0.7h14
			C45.8,31.3,46,31.4,46,32z"/>
		<path fill="#1085C6" d="M61.6,53.9c4.6,0,6.8-2.5,6.8-6.5V32c0-0.5,0.2-0.7,0.7-0.7h1.1c0.5,0,0.7,0.2,0.7,0.7v15.5
			c0,5.4-3.1,8.9-9.3,8.9c-6.2,0-9.3-3.5-9.3-8.9V32c0-0.5,0.2-0.7,0.7-0.7h1.1c0.5,0,0.7,0.2,0.7,0.7v15.5
			C54.8,51.5,57,53.9,61.6,53.9z"/>
		<path fill="#1085C6" d="M41,62.2v10.1c0,0.4-0.1,0.5-0.5,0.5h-0.8c-0.4,0-0.5-0.1-0.5-0.5v-4.8c0-0.9,0.1-1.9,0.4-3.1h-0.1
			c-0.4,1.2-0.8,2-1.3,2.9l-1.5,2.7c-0.2,0.3-0.3,0.4-0.6,0.4h-0.5c-0.3,0-0.4-0.1-0.6-0.4l-1.6-2.7c-0.5-0.9-0.8-1.6-1.2-2.9h-0.1
			c0.3,1.2,0.3,2.2,0.3,3.1v4.8c0,0.4-0.1,0.5-0.5,0.5H31c-0.4,0-0.5-0.1-0.5-0.5V62.2c0-0.4,0.1-0.5,0.5-0.5h0.7
			c0.4,0,0.6,0.1,0.8,0.4l3.3,5.8L39,62c0.2-0.3,0.3-0.4,0.7-0.4h0.8C40.9,61.6,41,61.8,41,62.2z"/>
		<path fill="#1085C6" d="M51.9,72.8h-0.8c-0.7,0-0.8-0.1-1-0.5l-0.7-2H45l-0.7,2c-0.1,0.4-0.3,0.5-1,0.5h-0.7
			c-0.4,0-0.5-0.2-0.4-0.5L46.2,62c0.1-0.4,0.3-0.4,0.7-0.4h0.8c0.4,0,0.5,0.1,0.7,0.4l3.9,10.2C52.4,72.6,52.3,72.8,51.9,72.8z
			 M47.3,63.4h-0.1c0,0,0,0.9-0.3,1.9l-1.2,3.3h3.2l-1.2-3.3C47.3,64.4,47.3,63.4,47.3,63.4z"/>
		<path fill="#1085C6" d="M62.1,65.8v2.9c0,2.6-1.6,4.1-4.6,4.1H54c-0.4,0-0.5-0.1-0.5-0.5V62.2c0-0.4,0.1-0.5,0.5-0.5h3.5
			C60.5,61.6,62.1,63.2,62.1,65.8z M57.6,63.5h-2.1v7.5h2.1c1.6,0,2.6-0.8,2.6-2.3v-2.9C60.2,64.3,59.2,63.5,57.6,63.5z"/>
		<path fill="#1085C6" d="M71.3,62.2v0.8c0,0.4-0.1,0.5-0.5,0.5h-4.8v2.7H70c0.4,0,0.5,0.1,0.5,0.5v0.8c0,0.4-0.1,0.5-0.5,0.5h-4.1
			v2.9h5c0.4,0,0.5,0.1,0.5,0.5v0.8c0,0.4-0.1,0.5-0.5,0.5h-6.4c-0.4,0-0.5-0.1-0.5-0.5V62.2c0-0.4,0.1-0.5,0.5-0.5h6.2
			C71.1,61.6,71.3,61.8,71.3,62.2z"/>
	</g>
</g>
</svg>
