<?xml version="1.0" encoding="utf-8"?>
<!-- Generator: Adobe Illustrator 18.1.1, SVG Export Plug-In . SVG Version: 6.00 Build 0)  -->
<svg version="1.1" id="Ebene_1" xmlns="http://www.w3.org/2000/svg" xmlns:xlink="http://www.w3.org/1999/xlink" x="0px" y="0px"
	 viewBox="0 0 111 166.5" enable-background="new 0 0 111 166.5" xml:space="preserve">
<g>
	<g>
		<linearGradient id="SVGID_1_" gradientUnits="userSpaceOnUse" x1="55.5" y1="166.5" x2="55.5" y2="0">
			<stop  offset="4.975124e-03" style="stop-color:#FFFFFF"/>
			<stop  offset="0.995" style="stop-color:#FFFFFF;stop-opacity:0.3"/>
		</linearGradient>
		<path fill="url(#SVGID_1_)" d="M111,111c0,30.7-24.8,55.5-55.5,55.5S0,141.7,0,111C0,70.5,55.5,0,55.5,0S111,69.4,111,111z"/>
	</g>
	<g>
		<path fill="#1085C6" d="M68.7,116.3c-7.2,3.3-10.3,11.8-6.9,19.2c3.3,7.3,11.9,10.6,19,7.4c7.1-3.3,10.2-11.8,6.9-19.2
			C84.4,116.3,75.8,113,68.7,116.3 M79.2,139.2c-5.2,2.4-11.4,0-13.8-5.4c-2.4-5.3-0.2-11.6,5-14c5.2-2.4,11.4,0,13.8,5.4
			C86.6,130.6,84.3,136.8,79.2,139.2"/>
		<path fill="#1085C6" d="M28.4,116.3c-7.1,3.3-10.2,11.8-6.9,19.2c3.3,7.3,11.9,10.6,19,7.4c7.2-3.3,10.3-11.9,6.9-19.2
			C44.1,116.3,35.6,113,28.4,116.3 M38.9,139.2c-5.2,2.4-11.4,0-13.8-5.4c-2.4-5.3-0.2-11.6,5-14c5.2-2.4,11.4,0,13.8,5.4
			C46.3,130.6,44.1,136.8,38.9,139.2"/>
		<path fill="#1085C6" d="M70.7,99.2c3.1,0.3,5.8-2,6.1-5.1c0.3-3.1-1.9-5.9-5-6.2c-3-0.3-5.8,2-6.1,5.1
			C65.4,96.1,67.7,98.9,70.7,99.2"/>
		<path fill="#1085C6" d="M76.6,108.8L66,108.6c0,0-0.3-11.2-0.3-11.3c-0.1-2.1-3-3.1-4-3.2c-0.7-0.1-16-2.4-24.9,9.8
			c-1.1,1.6-1.3,3.5-0.3,5c0.4,0.8,1.8,1.7,2.4,2c0.6,0.2,14.1,5.9,14.1,5.9l-1.5,13.8c-0.3,1.6,0.7,3.1,2.2,3.3s2.5-0.8,2.8-2.4
			l2.6-16.1c0.2-1.2-0.3-2.4-1.4-3l-0.2-0.1l-10.8-6.1c5.7-4.6,13.9-3.5,14.6-3.4l0.7,7.8l0,0.1c0.1,1,0.9,1.8,1.9,1.8l12.6,0.3
			c1.1,0,2-0.8,2-1.9C78.6,109.7,77.7,108.8,76.6,108.8z"/>
	</g>
</g>
</svg>
