<?xml version="1.0" encoding="utf-8"?>
<!-- Generator: Adobe Illustrator 18.1.1, SVG Export Plug-In . SVG Version: 6.00 Build 0)  -->
<svg version="1.1" id="Ebene_1" xmlns="http://www.w3.org/2000/svg" xmlns:xlink="http://www.w3.org/1999/xlink" x="0px" y="0px"
	 viewBox="0 0 111 166.5" enable-background="new 0 0 111 166.5" xml:space="preserve">
<g>
	<g>
		<linearGradient id="SVGID_1_" gradientUnits="userSpaceOnUse" x1="55.5" y1="166.5" x2="55.5" y2="1.818989e-12">
			<stop  offset="4.975124e-03" style="stop-color:#FFFFFF"/>
			<stop  offset="0.995" style="stop-color:#FFFFFF;stop-opacity:0.3"/>
		</linearGradient>
		<path fill="url(#SVGID_1_)" d="M111,111c0,30.7-24.8,55.5-55.5,55.5S0,141.7,0,111C0,70.5,55.5,0,55.5,0S111,69.4,111,111z"/>
	</g>
	<g>
		<path fill="#1085C6" d="M48.4,126.5l-6.6,14.1c-0.8,1.7-2.8,2.4-4.4,1.6c-1.6-0.8-2.3-2.7-1.6-4.3l6.1-14.3
			c0.8-1.8,2.9-2.7,4.7-1.9c1.8,0.8,2.7,2.9,1.9,4.7C48.5,126.4,48.4,126.5,48.4,126.5z"/>
		<path fill="#1085C6" d="M42.4,89.7c-0.9-0.7-2.1-0.4-2.7,0.5l-2.1,3.2c-0.6,0.9-1.1,2.6-1,3.7l0.7,16.2c0,1.1,1,2,2.1,2l0.6,0
			c1.1,0,2.3-0.9,2.6-1.9l5-17.6c0.3-1.1-0.2-2.5-1.1-3.1L42.4,89.7z"/>
		<g>
			<path fill="#1085C6" d="M71.9,111l-14.9-6.9l-2.9,11l8.3,8.3l0.1,0.1c0.6,0.6,1,1.5,1,2.3v13.4c0,1.8-1.5,3.3-3.3,3.3
				c-1.8,0-3.3-1.5-3.3-3.3v-11.8l-10.7-8.5c-1.2-1-1.7-2.5-1.5-3.9c-0.1-0.6-0.1-1.2,0.1-1.9l3.9-14.9c0.2-0.7,0.5-1.3,1-1.9
				c0.9-1.9,3.1-2.7,5-1.8c0.1,0.1,0.3,0.1,0.4,0.2l19.2,11.9c1.2,0.7,1.5,2.2,0.8,3.4C74.8,110.7,73.7,111.6,71.9,111z"/>
		</g>
		<path fill="#1085C6" d="M56.4,92.6c3,0.2,5.6-2.3,5.6-5.3c0.1-3.1-2.3-5.6-5.3-5.6c-3,0-5.5,2.5-5.5,5.5
			C51.2,90,53.5,92.4,56.4,92.6z"/>
	</g>
</g>
</svg>
