<?xml version="1.0" encoding="utf-8"?>
<!-- Generator: Adobe Illustrator 18.1.1, SVG Export Plug-In . SVG Version: 6.00 Build 0)  -->
<svg version="1.1" id="Ebene_1" xmlns="http://www.w3.org/2000/svg" xmlns:xlink="http://www.w3.org/1999/xlink" x="0px" y="0px"
	 viewBox="0 0 96.9 96.9" enable-background="new 0 0 96.9 96.9" xml:space="preserve">
<g>
	<path fill="#FFFFFF" d="M96.9,39.4c0,10.9-3.9,20.1-11.5,27.8c-7.7,7.7-17,11.5-27.8,11.5c-9.2,0-17.4-2.9-24.6-8.7L7.2,95.6
		c-0.9,0.9-1.9,1.3-3,1.3S2,96.5,1.2,95.7C0.4,94.9,0,93.9,0,92.8c0-1.1,0.4-2.1,1.3-3L26.9,64c-5.8-7.2-8.7-15.4-8.7-24.6
		c0-10.9,3.8-20.1,11.5-27.8C37.4,3.9,46.7,0,57.6,0c10.9,0,20.1,3.9,27.8,11.5C93.1,19.2,96.9,28.5,96.9,39.4z M90.9,39.4
		c0-9.2-3.3-17.1-9.7-23.6c-6.5-6.5-14.4-9.7-23.6-9.7c-9.2,0-17.1,3.3-23.6,9.7c-6.5,6.5-9.7,14.4-9.7,23.6
		c0,9.2,3.2,17.1,9.7,23.6c6.5,6.5,14.4,9.7,23.6,9.7c9.2,0,17.1-3.2,23.6-9.7C87.6,56.4,90.9,48.6,90.9,39.4z M77.9,37.2
		c0.6,0.6,0.9,1.3,0.9,2.2c0,0.9-0.3,1.6-0.9,2.2c-0.6,0.6-1.3,0.9-2.2,0.9H60.6v15.1c0,0.9-0.3,1.6-0.9,2.2
		c-0.6,0.6-1.3,0.9-2.2,0.9c-0.9,0-1.6-0.3-2.2-0.9c-0.6-0.6-0.9-1.3-0.9-2.2V42.4H39.4c-0.9,0-1.6-0.3-2.2-0.9
		c-0.6-0.6-0.9-1.3-0.9-2.2c0-0.9,0.3-1.6,0.9-2.2c0.6-0.6,1.3-0.9,2.2-0.9h15.1V21.2c0-0.9,0.3-1.6,0.9-2.2
		c0.6-0.6,1.3-0.9,2.2-0.9c0.9,0,1.6,0.3,2.2,0.9c0.6,0.6,0.9,1.3,0.9,2.2v15.1h15.1C76.6,36.3,77.3,36.6,77.9,37.2z"/>
</g>
</svg>
