<?xml version="1.0" encoding="utf-8"?>
<!-- Generator: Adobe Illustrator 18.1.1, SVG Export Plug-In . SVG Version: 6.00 Build 0)  -->
<svg version="1.1" id="Ebene_1" xmlns="http://www.w3.org/2000/svg" xmlns:xlink="http://www.w3.org/1999/xlink" x="0px" y="0px"
	 viewBox="0 0 224.4 28.3" enable-background="new 0 0 224.4 28.3" xml:space="preserve">
<g>
	<g>
		<path fill="#1077BD" d="M136.2,1.2h-25.8v25.8h25.8V1.2z M132.9,14.1v9.7h-9.7h-9.7v-9.7V4.5h9.7h9.7V14.1z"/>
		<path fill="#1077BD" d="M123.2,4.5c-5.4,0-9.7,4.3-9.7,9.7s4.3,9.7,9.7,9.7c5.4,0,9.7-4.3,9.7-9.7S128.6,4.5,123.2,4.5z
			 M123.2,22.8c-4.8,0-8.6-3.9-8.6-8.6s3.9-8.6,8.6-8.6s8.6,3.9,8.6,8.6S128,22.8,123.2,22.8z"/>
		<circle fill="#1077BD" cx="120" cy="14.1" r="2.2"/>
		<circle fill="#1077BD" cx="126.5" cy="14.1" r="2.2"/>
	</g>
	<g>
		<path fill="#1077BD" d="M80.5,13.3L91,7.8l-1.2-2.9l-10.9,5.8L72.6,0l-6.3,10.7L55.4,4.9l-1.2,2.9l10.6,5.5l-4.2,7.2l-7.6,4
			l1.2,2.6l3.6-1.9l-1.1,1.9h32l-1.1-1.9l3.6,1.9l1.2-2.6l-7.6-4L80.5,13.3z M79.1,17.5l-3.3-1.7l1.8-0.9L79.1,17.5z M72.6,6.2
			l3.5,6.1l-3.5,1.8l-3.5-1.8L72.6,6.2z M67.6,14.8l1.8,0.9l-3.3,1.7L67.6,14.8z M82.4,23.4H62.7l0.7-1.2l9.2-4.8l9.2,4.8L82.4,23.4
			z"/>
	</g>
	<g>
		<path fill="#1077BD" d="M183.6,27.1l-4.9-18.5c0,0,0-2.5-3.7-2.5c-3.7,0-19.7,0-19.7,0l1.2,2.5c0,0,14.8,1.2,17.2,1.2
			c2.5,0,2.5,2.5,2.5,2.5l0.4,2.5c-3.5,0-9.2,0-13.9,0c-9.8,0-11.1,12.3-11.1,12.3h27.1H183.6z M154.6,24.6c0.9-3,3-7.4,8.1-7.4H177
			l1.2,7.4H154.6z"/>
		<circle fill="#1077BD" cx="167.6" cy="20.9" r="2.5"/>
	</g>
	<g>
		<path fill="#1077BD" d="M11.1,11.1c0,2,1.4,2.8,2.5,2.3v5.1c0,2.4,2,3.1,3.1,1.9c0.7,0.8,1.8,0.8,2.5,0c0.3,0.4,0.8,0.6,1.2,0.6
			c0.9,0,1.8-0.8,1.8-2.5v-3.8c0.7,0.3,1.5,0.1,2-0.6c0.3-0.4,0.5-1,0.5-1.8V7.4c0-3.8-0.6-6.2-1-7.4h-1.3c0.3,0.8,1,3.2,1,7.4v4.9
			c0,0.4-0.1,0.8-0.3,1c-0.4,0.5-1,0.1-1-1V9.2h-1.2v9.2c0,1.6-1.2,1.6-1.2,0v-8h-1.2v8c0,1.6-1.2,1.6-1.2,0v-8H16v8
			c0,1.6-1.2,1.6-1.2,0V7.4h-1.2v3.7c0,1.6-1.2,1.6-1.2,0V6.2c0-2.2,3.1-5.1,4.5-6.2h-1.9c-1.5,1.4-3.8,3.9-3.8,6.2V11.1z"/>
		<path fill="#1077BD" d="M32.7,7.3c-0.7-0.1-1.1-0.5-1.5-1c-0.6-0.6-1.4-1.4-2.9-1.4c-1.2,0-1.9,0.5-2.5,1v1.7
			c0.2-0.1,0.3-0.3,0.4-0.4c0.6-0.6,1-1.1,2-1.1s1.4,0.5,2,1.1c0.5,0.5,1.1,1.1,2.2,1.3l-3,14.8H7.4l-3-14.8c1-0.2,1.7-0.8,2.2-1.3
			c0.6-0.6,1-1,2-1c0.5,0,0.9,0.1,1.2,0.4V5.1C9.5,5,9.1,4.9,8.6,4.9c-1.5,0-2.3,0.8-2.9,1.4c-0.5,0.5-0.9,0.9-1.5,1L3.7,4.9H0
			l4.9,22.1H32l4.9-22.1h-3.7L32.7,7.3z"/>
	</g>
	<g>
		<path fill="#1077BD" d="M210.8,28.3c7.5,0,13.5-6.1,13.5-13.5s-6.1-13.5-13.5-13.5c-7.5,0-13.5,6.1-13.5,13.5
			S203.4,28.3,210.8,28.3z M210.8,3.7c6.1,0,11.1,5,11.1,11.1s-5,11.1-11.1,11.1s-11.1-5-11.1-11.1S204.7,3.7,210.8,3.7z"/>
		<path fill="#1077BD" d="M209.1,16.9h1.8c1.6,0,2.8-0.4,3.7-1.3c0.9-0.9,1.4-1.9,1.4-3.3c0-1.3-0.4-2.4-1.3-3.1
			c-0.9-0.7-2.1-1.1-3.7-1.1h-4.2v13.8h2.3V16.9z M209.1,10h1.7c1.9,0,2.8,0.8,2.8,2.4c0,0.8-0.3,1.5-0.8,1.9
			c-0.5,0.5-1.3,0.7-2.2,0.7h-1.5V10z"/>
	</g>
</g>
</svg>
