<?xml version="1.0" encoding="utf-8"?>
<!-- Generator: Adobe Illustrator 18.1.1, SVG Export Plug-In . SVG Version: 6.00 Build 0)  -->
<svg version="1.1" id="Ebene_1" xmlns="http://www.w3.org/2000/svg" xmlns:xlink="http://www.w3.org/1999/xlink" x="0px" y="0px"
	 viewBox="0 0 314.3 71.8" enable-background="new 0 0 314.3 71.8" xml:space="preserve">
<g>
	<g>
		<path fill="#1077BD" d="M97.2,28.3h-7.6v12.6h-5.5V10.4h19.7c2.2,0,4,2,4,4.2V24c0,2.3-1.6,4.2-3.9,4.2h-0.6l5,12.6h-5.9
			L97.2,28.3z M89.7,22.6h12.7V16H89.7V22.6z"/>
		<path fill="#1077BD" d="M132.3,33.1h-11.7l-2.9,7.6h-6l12.1-30.3h5.5l12,30.3h-6L132.3,33.1z M122.8,27.6h7.5l-3.8-9.6L122.8,27.6
			z"/>
		<rect x="145.6" y="10.4" fill="#1077BD" width="5.5" height="30.3"/>
		<polygon fill="#1077BD" points="163.7,21.4 163.7,40.7 158.3,40.7 158.3,10.4 163.6,10.4 175.3,29.5 175.3,10.4 180.9,10.4 
			180.9,40.7 175.8,40.7 		"/>
		<path fill="#1A1A18" d="M191.6,40.7c-2.2,0-3.9-1.8-3.9-4.2v-22c0-2.3,1.7-4.2,3.9-4.2h18V16h-16.4v19.2h16.4v5.6h-18V40.7z"/>
		<path fill="#1A1A18" d="M218.2,40.7c-2.2,0-4-1.8-4-4.2v-22c0-2.3,1.6-4.2,3.9-4.2h15.8c2.2,0,3.9,2,3.9,4.2v22
			c0,2.3-1.7,4.2-3.9,4.2H218.2z M219.6,35.2h12.7V16h-12.7V35.2z"/>
		<polygon fill="#1A1A18" points="265.5,20.9 259.6,30.5 256.1,30.5 249.8,20.9 249.8,40.7 244.2,40.7 244.2,10.4 249.5,10.4 
			257.7,23.1 265.7,10.4 271.2,10.4 271.2,40.7 265.5,40.7 		"/>
		<path fill="#1A1A18" d="M277.9,40.7V10.4h19.7c2.2,0,4,2,4,4.2v7.1c0,1.3-0.5,2.4-1.3,3.2c0.9,0.7,1.3,2,1.3,3.2v8.6
			c0,2.3-1.8,4.2-3.9,4.2L277.9,40.7L277.9,40.7z M283.3,22.3H296V16h-12.7V22.3z M283.3,35.2H296v-7.3h-12.7V35.2z"/>
		<rect x="308.8" y="10.4" fill="#1A1A18" width="5.5" height="30.3"/>
	</g>
	<path fill="#1A1A18" d="M74.5,10.4c-1.2,5-14.4,37.1-24.9,37.1C35.3,47.6,47,19,23.9,19C16.4,19,8.1,21.7,0,24.5
		C8.9,18.4,23.6,12.7,31.6,13c17.6,0.5,9.8,21.5,21.3,21.5c9.6,0,18.2-23.9,18.8-25.3"/>
	<path fill="#1077BD" d="M18.3,12.6c-0.1,0,26.1-19.2,51.9-10.3c0.1,0-7.1,25.9-16.7,25.4c-4.4-0.2-6.6-7.9-7.2-10.9
		C45.7,13.1,43.4,2.9,18.3,12.6"/>
</g>
<text transform="matrix(1 0 0 1 81.4891 41.4244)" display="none"><tspan x="0" y="0" display="inline" fill="#1077BD" font-family="'Geogrotesque-SemiBold'" font-size="46.8843">RAIN</tspan><tspan x="96.2" y="0" display="inline" font-family="'Geogrotesque-SemiBold'" font-size="46.8843">COMBI</tspan></text>
<g>
	<path d="M92.2,56.7V53c0-0.9-0.1-1.7-0.2-2.2h1.8c-0.1,0.6-0.1,1.4-0.1,2.2v11.4c0,0.8,0,1.6,0.1,2.2h-1.7v-1.6
		c-1,1.1-2.4,1.7-3.8,1.7c-2.1,0-3.3-1.9-3.3-5.3c0-3.8,1.5-5.9,4.2-5.9C90.4,55.6,91.4,56,92.2,56.7z M92.2,58.3
		c-0.6-0.9-1.7-1.4-2.8-1.4c-1.7,0-2.6,1.6-2.6,4.5c0,2.7,0.7,4.1,2,4.1c1.2,0,2.5-0.8,3.4-2V58.3z"/>
	<path d="M97.3,55.8H99v1.5c1.1-1.2,2.1-1.8,3-1.8v1.5c-0.1,0-0.2,0-0.3,0c-0.8,0-1.8,0.7-2.7,2.1v5.2c0,0.9,0.1,1.7,0.2,2.2h-1.8
		c0.1-0.5,0.2-1.4,0.2-2.2v-6.4C97.5,57.2,97.4,56.3,97.3,55.8z"/>
	<path d="M110.6,63.9l0.9,1c-1.4,1.2-3,2-4.5,2c-2.5,0-4.1-2-4.1-5.5c0-3.5,1.7-5.8,4.3-5.8c2.5,0,4,1.9,4,5c0,0.2,0,0.4,0,0.6
		l0,0.2h-0.2c-1-0.1-2.2-0.1-3.7-0.1c-0.6,0-1.1,0-1.4,0l-1.2,0.1h-0.2v0.1c0,2.5,0.9,3.9,2.5,3.9C108.2,65.4,109.6,64.8,110.6,63.9
		z M109.6,60.1c-0.1-2.2-0.9-3.3-2.3-3.3c-1.5,0-2.4,1.3-2.6,3.3h0.2c0.7,0,1.2,0,1.3,0h1.3h1c0.3,0,0.6,0,0.9,0
		C109.4,60.1,109.5,60.1,109.6,60.1z"/>
	<path d="M112.8,66.3l0.5-1.5c0.6,0.5,1.5,0.8,2.5,0.8c1.4,0,2.4-0.8,2.4-1.8c0-0.9-0.5-1.4-2.1-2.2c-1.4-0.6-1.8-0.8-2.2-1.2
		c-0.5-0.4-0.8-1.1-0.8-1.8c0-1.7,1.6-2.9,3.8-2.9c0.8,0,1.7,0.1,2.3,0.4l-0.3,1.5c-0.5-0.4-1.3-0.6-2.1-0.6c-1.2,0-2,0.6-2,1.5
		c0,0.7,0.5,1.1,2.2,1.9c1.3,0.6,1.5,0.7,2,1.1c0.6,0.5,0.9,1.3,0.9,2.2c0,2-1.7,3.4-4.1,3.4C114.5,66.8,113.5,66.6,112.8,66.3z"/>
	<path d="M120.9,66.3l0.5-1.5c0.6,0.5,1.5,0.8,2.5,0.8c1.4,0,2.4-0.8,2.4-1.8c0-0.9-0.5-1.4-2.1-2.2c-1.4-0.6-1.8-0.8-2.2-1.2
		c-0.5-0.4-0.8-1.1-0.8-1.8c0-1.7,1.6-2.9,3.8-2.9c0.8,0,1.7,0.1,2.3,0.4l-0.3,1.5c-0.5-0.4-1.3-0.6-2.1-0.6c-1.2,0-2,0.6-2,1.5
		c0,0.7,0.5,1.1,2.2,1.9c1.3,0.6,1.5,0.7,2,1.1c0.6,0.5,0.9,1.3,0.9,2.2c0,2-1.7,3.4-4.1,3.4C122.7,66.8,121.6,66.6,120.9,66.3z"/>
	<path d="M134.9,66.3l0.5-1.5c0.6,0.5,1.5,0.8,2.5,0.8c1.4,0,2.4-0.8,2.4-1.8c0-0.9-0.5-1.4-2.1-2.2c-1.4-0.6-1.8-0.8-2.2-1.2
		c-0.5-0.4-0.8-1.1-0.8-1.8c0-1.7,1.6-2.9,3.8-2.9c0.8,0,1.7,0.1,2.3,0.4l-0.3,1.5c-0.5-0.4-1.3-0.6-2.1-0.6c-1.2,0-2,0.6-2,1.5
		c0,0.7,0.5,1.1,2.2,1.9c1.3,0.6,1.5,0.7,2,1.1c0.6,0.5,0.9,1.3,0.9,2.2c0,2-1.7,3.4-4.1,3.4C136.6,66.8,135.6,66.6,134.9,66.3z"/>
	<path d="M144.2,55.8h1.7v1.5c1.3-1.2,2.4-1.8,3.5-1.8c1.1,0,2,0.7,2.2,1.8c1.4-1.2,2.5-1.8,3.6-1.8c1.6,0,2.3,1,2.3,3.5v5.4
		c0,0.9,0.1,1.7,0.2,2.2h-1.8c0.1-0.5,0.1-1.3,0.1-2.2v-5.3c0-1.5-0.3-2.2-1.1-2.2c-0.7,0-2,0.8-3.1,1.9v5.6c0,0.9,0.1,1.8,0.2,2.2
		h-1.8c0.1-0.6,0.1-1.4,0.1-2.2v-5.3c0-1.6-0.3-2.2-1.1-2.2c-0.8,0-2,0.8-3.1,2v5.5c0,0.8,0.1,1.7,0.2,2.2h-1.8
		c0.1-0.5,0.2-1.4,0.2-2.2v-6.4C144.3,57.2,144.2,56.3,144.2,55.8z"/>
	<path d="M161.5,58.3l-0.6-1.2c1.7-1,3.4-1.5,4.8-1.5c2.1,0,2.8,0.8,2.8,3.1v5.8c0,0.8,0,1.8,0.1,2.2h-1.7v-1.8l-0.2,0.2
		c-1.5,1.3-2.6,1.8-3.9,1.8c-1.5,0-2.7-1.2-2.7-2.8c0-2.5,2.1-3.9,6.5-4.3l0.2,0v-1c0-1.3-0.3-1.8-1.3-1.8
		C164.3,56.9,162.7,57.4,161.5,58.3z M166.9,60.9c-3.3,0.2-5.1,1.4-5.1,3.1c0,1,0.4,1.5,1.3,1.5c1,0,2.5-0.9,3.9-2.2V60.9z"/>
	<path d="M171.9,55.8h1.7v1.5c1.1-1.2,2.1-1.8,3-1.8v1.5c-0.1,0-0.2,0-0.3,0c-0.8,0-1.8,0.7-2.7,2.1v5.2c0,0.9,0.1,1.7,0.2,2.2h-1.8
		c0.1-0.5,0.2-1.4,0.2-2.2v-6.4C172,57.2,172,56.3,171.9,55.8z"/>
	<path d="M177.7,57v-1.2h1.8l0.3-2.8l1.3-0.2l0,3h1.8c0.7,0,1,0,1.2-0.1v1.4c-0.2,0-0.2,0-0.4,0l-0.4,0h-0.4H181v6.8
		c0,1.2,0.2,1.6,0.6,1.6c0.5,0,1.3-0.5,2-1.2l0.8,1c-1.2,1-2.4,1.6-3.3,1.6c-1.2,0-1.7-0.7-1.7-2.4V57H177.7z"/>
	<path d="M186,64.6l1.7,0.2l-1.2,4.9l-1.3-0.2L186,64.6z"/>
	<path d="M195.2,66.3l0.5-1.5c0.6,0.5,1.5,0.8,2.5,0.8c1.4,0,2.4-0.8,2.4-1.8c0-0.9-0.5-1.4-2.1-2.2c-1.4-0.6-1.8-0.8-2.2-1.2
		c-0.5-0.4-0.8-1.1-0.8-1.8c0-1.7,1.6-2.9,3.8-2.9c0.8,0,1.7,0.1,2.3,0.4l-0.3,1.5c-0.5-0.4-1.3-0.6-2.1-0.6c-1.2,0-2,0.6-2,1.5
		c0,0.7,0.5,1.1,2.2,1.9c1.3,0.6,1.5,0.7,2,1.1c0.6,0.5,0.9,1.3,0.9,2.2c0,2-1.7,3.4-4.1,3.4C196.9,66.8,195.9,66.6,195.2,66.3z"/>
	<path d="M203.1,57v-1.2h1.8l0.3-2.8l1.3-0.2l0,3h1.8c0.7,0,1,0,1.2-0.1v1.4c-0.2,0-0.2,0-0.4,0l-0.4,0h-0.4h-1.8v6.8
		c0,1.2,0.2,1.6,0.6,1.6c0.5,0,1.3-0.5,2-1.2l0.8,1c-1.2,1-2.4,1.6-3.3,1.6c-1.2,0-1.7-0.7-1.7-2.4V57H203.1z"/>
	<path d="M212.5,58.3l-0.6-1.2c1.7-1,3.4-1.5,4.8-1.5c2.1,0,2.8,0.8,2.8,3.1v5.8c0,0.8,0,1.8,0.1,2.2h-1.7v-1.8l-0.2,0.2
		c-1.5,1.3-2.6,1.8-3.9,1.8c-1.5,0-2.7-1.2-2.7-2.8c0-2.5,2.1-3.9,6.5-4.3l0.2,0v-1c0-1.3-0.3-1.8-1.3-1.8
		C215.3,56.9,213.7,57.4,212.5,58.3z M217.9,60.9c-3.3,0.2-5.1,1.4-5.1,3.1c0,1,0.4,1.5,1.3,1.5c1,0,2.5-0.9,3.9-2.2V60.9z"/>
	<path d="M220.9,55.8h1.8c0.1,0.5,0.3,1,0.6,1.8l2.5,6.8l2.3-6.8l0.2-0.7c0.1-0.3,0.2-0.7,0.3-1h1.8c-0.1,0.2-0.1,0.2-0.3,0.5
		l-0.3,0.7l-0.3,0.8l-4.2,11.4c-0.6,1.7-1.2,2.3-2.5,2.3c-0.6,0-1.3-0.1-1.8-0.3l0.4-1.3c0.5,0.2,0.8,0.2,1.2,0.2
		c0.8,0,1.2-0.3,1.6-1.5l0.8-2.4l-3.2-8.6l-0.2-0.6l-0.2-0.7C221.1,56.1,221.1,56.1,220.9,55.8z"/>
	<path d="M244,56.7V53c0-0.9-0.1-1.7-0.2-2.2h1.8c-0.1,0.6-0.1,1.4-0.1,2.2v11.4c0,0.8,0,1.6,0.1,2.2H244v-1.6
		c-1,1.1-2.4,1.7-3.8,1.7c-2.1,0-3.3-1.9-3.3-5.3c0-3.8,1.5-5.9,4.2-5.9C242.3,55.6,243.3,56,244,56.7z M244,58.3
		c-0.6-0.9-1.7-1.4-2.8-1.4c-1.7,0-2.6,1.6-2.6,4.5c0,2.7,0.7,4.1,2,4.1c1.2,0,2.5-0.8,3.4-2V58.3z"/>
	<path d="M249.2,55.8h1.7v1.5c1.1-1.2,2.1-1.8,3-1.8v1.5c-0.1,0-0.2,0-0.3,0c-0.8,0-1.8,0.7-2.7,2.1v5.2c0,0.9,0.1,1.7,0.2,2.2h-1.8
		c0.1-0.5,0.2-1.4,0.2-2.2v-6.4C249.3,57.2,249.2,56.3,249.2,55.8z"/>
	<path d="M254.8,55.8h1.8c0.1,0.5,0.3,1,0.6,1.8l2.5,6.8l2.3-6.8l0.2-0.7c0.1-0.3,0.2-0.7,0.3-1h1.8c-0.1,0.2-0.1,0.2-0.3,0.5
		l-0.3,0.7l-0.3,0.8l-4.2,11.4c-0.6,1.7-1.2,2.3-2.5,2.3c-0.6,0-1.3-0.1-1.8-0.3l0.4-1.3c0.5,0.2,0.8,0.2,1.2,0.2
		c0.8,0,1.2-0.3,1.6-1.5l0.8-2.4l-3.2-8.6l-0.2-0.6l-0.2-0.7C255,56.1,255,56.1,254.8,55.8z"/>
</g>
</svg>
